<?xml version="1.0" encoding="utf-8"?>
<!-- Generator: Adobe Illustrator 25.0.0, SVG Export Plug-In . SVG Version: 6.00 Build 0)  -->
<svg version="1.1" id="图层_1" xmlns="http://www.w3.org/2000/svg" xmlns:xlink="http://www.w3.org/1999/xlink" x="0px" y="0px"
	 viewBox="0 0 144.2 172.1" style="enable-background:new 0 0 144.2 172.1;" xml:space="preserve">
<style type="text/css">
	.st0{fill:#0D1C4F;}
</style>
<g id="图层_2_1_">
	<g id="图层_1-2">
		<path class="st0" d="M128.2,66.1h-0.5c-3,0-5.9,0.9-8.4,2.6c-2-6.7-8.2-11.2-15.2-11.2c-3.2,0-6.2,0.9-8.9,2.6
			c-2-6.7-8.2-11.2-15.2-11.2c-2.7,0-5.4,0.7-7.8,1.9V34.1c0-9.1-6.9-16.5-16.1-16.5c-9.2,0-16.6,7.3-16.7,16.5v64L29.3,88
			c-6.4-6.4-18-5.5-23.5,0s-9.1,16.7-1.2,24.6l46.5,46.1c0.9,1,2,1.8,3.2,2.4c8.5,6.9,18.1,11,38.7,11c46.8,0,51.2-25.3,51.2-56.5
			v-33C144.2,73.4,137.5,66.1,128.2,66.1L128.2,66.1z M135.4,115.6c0,26.4-0.1,47.8-42.5,47.8c-17.9,0-28.7-4-36.9-12l-43.9-43.7
			c-3.9-3.9-2.9-8.9,0.2-12s9-3.3,12-0.2l14.4,14.2c5,5,9.5,9.4,9.5,9.4V35.7c0-4.3,3.4-7.8,7.7-7.8c0.1,0,0.1,0,0.2,0
			c4.4,0,7.3,3.5,7.3,7.8v52.9h0.1c0,0.2-0.1,0.6-0.1,0.9c0,2.4,1.9,4.4,4.3,4.4c0,0,0,0,0.1,0c2.4,0.1,4.3-1.8,4.4-4.2
			c0-0.1,0-0.1,0-0.2c0-0.3,0-0.6-0.1-0.9h0.1V66.9c-0.2-4.1,3.1-7.6,7.2-7.8c0.1,0,0.2,0,0.3,0c0,0,7.7-0.1,7.7,7.8v28.6h0.1
			c0,0.2-0.1,0.6-0.1,0.9c0,2.4,2,4.4,4.4,4.4s4.4-2,4.4-4.4c0-0.3,0-0.6-0.1-0.9h0.1v-20c0-4.4,3-7.8,7.4-7.8c0,0,7.9,0.5,7.9,7.8
			v25.2h0.1c0,0.2-0.1,0.6-0.1,0.9c0,2.4,1.9,4.4,4.3,4.4c0,0,0,0,0.1,0c2.3,0,4.3-1.8,4.3-4.2c0-0.1,0-0.2,0-0.2
			c0-0.3,0-0.6-0.1-0.9h0.1V83.5c-0.1-4.2,3.1-7.7,7.3-7.8c0.1,0,0.1,0,0.2,0c0,0,7.7-0.2,7.7,7.8V115.6z M33.1,58.5V43.9
			c-1.4-3.2-2.1-6.7-2.2-10.2C30.9,19.8,42.2,8.6,56,8.6s25.1,11.3,25.1,25.1c0,1.8-0.2,3.6-0.6,5.4c3,0.1,5.9,1.4,8,3.5
			c0.9-2.9,1.3-6,1.3-9C89.8,15.1,74.7,0,56.1,0C37.5,0,22.4,15.1,22.4,33.7C22.3,43.1,26.2,52.1,33.1,58.5z"/>
	</g>
</g>
</svg>
