<?xml version="1.0" encoding="utf-8"?>
<!-- Generator: Adobe Illustrator 25.0.0, SVG Export Plug-In . SVG Version: 6.00 Build 0)  -->
<svg version="1.1" id="图层_1" xmlns="http://www.w3.org/2000/svg" xmlns:xlink="http://www.w3.org/1999/xlink" x="0px" y="0px"
	 viewBox="0 0 157.7 129.6" style="enable-background:new 0 0 157.7 129.6;" xml:space="preserve">
<style type="text/css">
	.st0{fill:none;stroke:#0D1C4F;stroke-width:9;stroke-miterlimit:10;}
	.st1{fill:#0D1C4F;}
</style>
<g id="图层_2_1_">
	<g id="图层_1-2">
		<path class="st0" d="M145.2,125.1H12.5c-4.4,0-8-3.6-8-8V38.2c0-2.1,0.9-4.1,2.3-5.7c1.5-1.5,3.6-2.3,5.7-2.3h132.7
			c4.4,0,8,3.6,8,8v78.9C153.2,121.5,149.6,125.1,145.2,125.1z"/>
		<path class="st0" d="M84.7,30.2H9.1c-2.5,0-4.6-1-4.6-2.2V6.6c0-0.1,0.1-0.9,1.3-1.5c1-0.4,2.1-0.6,3.2-0.6h63.8
			c2,0,4.1,1.1,4.6,2.2L89.3,28C89.2,29.3,87.2,30.2,84.7,30.2z"/>
		<path class="st1" d="M137.1,66.8H50.9c-1.9,0-3.5-1.5-3.5-3.5c0,0,0,0,0,0l0,0c0-1.9,1.5-3.5,3.5-3.5c0,0,0,0,0,0h86.2
			c1.9,0,3.5,1.5,3.5,3.5c0,0,0,0,0,0l0,0C140.6,65.2,139,66.8,137.1,66.8z"/>
		<path class="st1" d="M137.1,95.6H50.9c-1.9,0-3.5-1.5-3.5-3.5c0,0,0,0,0,0l0,0c0-1.9,1.5-3.5,3.5-3.5c0,0,0,0,0,0h86.2
			c1.9,0,3.5,1.5,3.5,3.5c0,0,0,0,0,0l0,0C140.6,94,139,95.6,137.1,95.6z"/>
		<circle class="st1" cx="28.6" cy="63.2" r="5.2"/>
		<circle class="st1" cx="28.6" cy="92.1" r="5.2"/>
	</g>
</g>
</svg>
