<?xml version="1.0" encoding="utf-8"?>
<!-- Generator: Adobe Illustrator 25.0.0, SVG Export Plug-In . SVG Version: 6.00 Build 0)  -->
<svg version="1.1" id="图层_1" xmlns="http://www.w3.org/2000/svg" xmlns:xlink="http://www.w3.org/1999/xlink" x="0px" y="0px"
	 viewBox="0 0 142.5 135.5" style="enable-background:new 0 0 142.5 135.5;" xml:space="preserve">
<style type="text/css">
	.st0{fill:none;stroke:#0D1C4F;stroke-width:7;stroke-miterlimit:10;}
	.st1{fill:#0D1C4F;}
</style>
<g id="图层_2_1_">
	<g id="图层_1-2">
		<path class="st0" d="M50.9,102.2L50.9,102.2c-3.4,3.5-8.9,3.5-12.4,0.1c0,0-0.1-0.1-0.1-0.1L13.1,76.9C9.6,73.5,9.6,68,13,64.5
			c0,0,0.1-0.1,0.1-0.1l0,0c3.4-3.5,8.9-3.5,12.4-0.1c0,0,0.1,0.1,0.1,0.1l25.3,25.3C54.3,93.2,54.3,98.7,50.9,102.2z"/>
		<path class="st0" d="M109.2,43.9L109.2,43.9c-3.4,3.5-8.9,3.5-12.4,0.1c0,0-0.1-0.1-0.1-0.1L71.4,18.6c-3.5-3.4-3.5-8.9-0.1-12.4
			c0,0,0.1-0.1,0.1-0.1l0,0c3.4-3.5,8.9-3.5,12.4-0.1c0,0,0.1,0.1,0.1,0.1l25.3,25.3C112.6,34.9,112.6,40.4,109.2,43.9z"/>
		
			<rect x="28.3" y="32.6" transform="matrix(0.7071 -0.7071 0.7071 0.7071 -20.2023 58.6244)" class="st0" width="64.7" height="42.2"/>
		<path class="st0" d="M69.4,74.9l52.8,52.8c4.7,4.7,11.3,5.7,14.7,2.2s2.5-10-2.2-14.7L81.9,62.4L69.4,74.9z"/>
		<path class="st1" d="M81.5,132.2H5c-2.8,0-5-2.2-5-5l0,0c0-2.8,2.2-5,5-5h76.4c2.8,0,5,2.2,5,5l0,0c0.1,2.7-2,4.9-4.7,5
			C81.6,132.2,81.6,132.2,81.5,132.2z"/>
	</g>
</g>
</svg>
