<?xml version="1.0" encoding="utf-8"?>
<!-- Generator: Adobe Illustrator 25.0.0, SVG Export Plug-In . SVG Version: 6.00 Build 0)  -->
<svg version="1.1" id="图层_1" xmlns="http://www.w3.org/2000/svg" xmlns:xlink="http://www.w3.org/1999/xlink" x="0px" y="0px"
	 viewBox="0 0 185 124.1" style="enable-background:new 0 0 185 124.1;" xml:space="preserve">
<style type="text/css">
	.st0{fill:#0D1C4F;}
	.st1{fill:none;stroke:#0D1C4F;stroke-width:7;stroke-miterlimit:10;}
</style>
<g id="图层_2_1_">
	<g id="图层_1-2">
		<path class="st0" d="M8.9,111.8h42.7c6,0,8.9,2,8.9,6.1s-3,6.1-8.9,6.1H8.9c-6,0-8.9-2-8.9-6.1S2.9,111.8,8.9,111.8z"/>
		<path class="st0" d="M71.7,107.6l20.4-20.4c2.9-2.9,5.3-3.3,7.2-1.4s1.5,4.3-1.4,7.2l-20.4,20.4c-2.9,2.9-5.3,3.3-7.2,1.4
			S68.8,110.4,71.7,107.6z"/>
		
			<rect x="132.2" y="1.7" transform="matrix(0.7071 -0.7071 0.7071 0.7071 13.1446 113.8231)" class="st1" width="23.5" height="78.6"/>
		<path class="st1" d="M146,63.3c0.4-1.9-0.2-3.8-1.5-5.2l-8.8-8.8l-8.8-8.8c-1.4-1.4-3.3-1.9-5.2-1.5l-36.6,8
			c-2.2,0.5-3.8,2.1-4.3,4.3L67.3,111c-0.7,3.1,1.2,6.1,4.3,6.8c0.8,0.2,1.7,0.2,2.5,0l59.7-13.5c2.1-0.5,3.8-2.2,4.3-4.3L146,63.3z
			"/>
	</g>
</g>
</svg>
