<?xml version="1.0" encoding="utf-8"?>
<!-- Generator: Adobe Illustrator 25.0.0, SVG Export Plug-In . SVG Version: 6.00 Build 0)  -->
<svg version="1.1" id="图层_1" xmlns="http://www.w3.org/2000/svg" xmlns:xlink="http://www.w3.org/1999/xlink" x="0px" y="0px"
	 viewBox="0 0 142.9 141.2" style="enable-background:new 0 0 142.9 141.2;" xml:space="preserve">
<style type="text/css">
	.st0{fill:#0D1C4F;}
</style>
<g id="图层_2_1_">
	<g id="图层_1-2">
		<path class="st0" d="M30.7,30.6h61.2c3.1,0,4.7,1.6,4.7,4.7S95,40,91.9,40H30.7c-3.1,0-4.7-1.6-4.7-4.7S27.5,30.6,30.7,30.6z"/>
		<path class="st0" d="M30.7,54.1h61.2c3.1,0,4.7,1.6,4.7,4.7s-1.6,4.7-4.7,4.7H30.7c-3.1,0-4.7-1.6-4.7-4.7S27.5,54.1,30.7,54.1z"
			/>
		<path class="st0" d="M30.7,77.6h22.5c3.1,0,4.7,1.6,4.7,4.7S56.3,87,53.2,87H30.7c-3.1,0-4.7-1.6-4.7-4.7S27.5,77.6,30.7,77.6z"/>
		<path class="st0" d="M30.7,101.1h22.5c3.1,0,4.7,1.6,4.7,4.7s-1.6,4.7-4.7,4.7H30.7c-3.1,0-4.7-1.6-4.7-4.7S27.5,101.1,30.7,101.1
			z"/>
		<path class="st0" d="M113,117.7v14.1H9.5V9.4H113v41.4h9.4V9.4c0-5.2-4.2-9.4-9.4-9.4c0,0,0,0,0,0H9.5C4.3,0,0,4.3,0,9.5v122.3
			c0,5.2,4.2,9.4,9.4,9.4c0,0,0,0,0,0h103.5c5.2,0,9.4-4.2,9.4-9.4c0,0,0,0,0,0v-14.1H113z"/>
		<path class="st0" d="M108.6,107.6l32.9-51.3c2.2-3.4,1.7-7.6-1.1-9.3s-6.7-0.5-8.9,2.9l-33,51.5c-0.2,0.2-0.4,0.5-0.4,0.8
			L96.5,114c-0.1,0.5,0.2,0.9,0.6,1c0.2,0.1,0.5,0,0.7-0.1l10.1-6.3C108.2,108.3,108.5,108,108.6,107.6z"/>
	</g>
</g>
</svg>
