<?xml version="1.0" encoding="utf-8"?>
<!-- Generator: Adobe Illustrator 25.0.0, SVG Export Plug-In . SVG Version: 6.00 Build 0)  -->
<svg version="1.1" id="图层_1" xmlns="http://www.w3.org/2000/svg" xmlns:xlink="http://www.w3.org/1999/xlink" x="0px" y="0px"
	 viewBox="0 0 127.7 130.2" style="enable-background:new 0 0 127.7 130.2;" xml:space="preserve">
<style type="text/css">
	.st0{fill:none;stroke:#0D1C4F;stroke-width:8;stroke-miterlimit:10;}
	.st1{fill:none;stroke:#0D1C4F;stroke-width:7;stroke-miterlimit:10;}
	.st2{fill:#0D1C4F;}
</style>
<g id="图层_2_1_">
	<g id="图层_1-2">
		<path class="st0" d="M46.2,55.6H13.4c-5.2,0-9.4-4.2-9.4-9.4c0,0,0,0,0,0V13.4C4,8.2,8.2,4,13.4,4c0,0,0,0,0,0h32.8
			c5.2,0,9.4,4.2,9.4,9.4c0,0,0,0,0,0v32.8C55.6,51.4,51.4,55.6,46.2,55.6C46.2,55.6,46.2,55.6,46.2,55.6z"/>
		<path class="st0" d="M114.3,126.2H81.5c-5.2,0-9.4-4.2-9.4-9.4c0,0,0,0,0,0V84c0-5.2,4.2-9.4,9.4-9.4c0,0,0,0,0,0h32.8
			c5.2,0,9.4,4.2,9.4,9.4c0,0,0,0,0,0v32.8c0,5.2-4.1,9.4-9.3,9.4C114.4,126.2,114.3,126.2,114.3,126.2z"/>
		<path class="st1" d="M10.7,76.1c0,0-8.6,45.3,37.4,40.8"/>
		<path class="st2" d="M57.4,114l-11.3-6.6c-1.1-0.6-2.4-0.3-3.1,0.8c-0.2,0.3-0.3,0.7-0.3,1.1v13.1c0,1.2,1,2.2,2.3,2.2
			c0.4,0,0.8-0.1,1.1-0.3l11.3-6.6c1-0.5,1.4-1.8,0.9-2.8C58.1,114.5,57.8,114.2,57.4,114z"/>
		<path class="st1" d="M115.9,54.1c0,0,8.6-45.3-37.4-40.8"/>
		<path class="st2" d="M69.2,16.3l11.3,6.6c1.1,0.6,2.4,0.3,3.1-0.8c0.2-0.3,0.3-0.7,0.3-1.1V7.9c0-1.2-1-2.2-2.3-2.2
			c-0.4,0-0.8,0.1-1.1,0.3l-11.3,6.4c-1.1,0.6-1.4,2-0.8,3.1C68.6,15.8,68.9,16.1,69.2,16.3z"/>
	</g>
</g>
</svg>
