<?xml version="1.0" encoding="utf-8"?>
<!-- Generator: Adobe Illustrator 25.0.0, SVG Export Plug-In . SVG Version: 6.00 Build 0)  -->
<svg version="1.1" id="图层_1" xmlns="http://www.w3.org/2000/svg" xmlns:xlink="http://www.w3.org/1999/xlink" x="0px" y="0px"
	 viewBox="0 0 151.5 133.1" style="enable-background:new 0 0 151.5 133.1;" xml:space="preserve">
<style type="text/css">
	.st0{fill:#0D1C4F;}
	.st1{fill:none;stroke:#0D1C4F;stroke-width:8;stroke-miterlimit:10;}
</style>
<g id="图层_2_1_">
	<g id="图层_1-2">
		<path class="st0" d="M64,119.4l-17.3-17.3c-1.7-1.8-1.7-4.5,0-6.3l0,0c1.8-1.7,4.5-1.7,6.3,0l17.3,17.3c1.7,1.8,1.7,4.5,0,6.3l0,0
			C68.5,121.1,65.8,121.1,64,119.4z"/>
		<path class="st0" d="M108.3,82.3l-37.2,37.1c-1.8,1.7-4.5,1.7-6.3,0l0,0c-1.7-1.8-1.7-4.5,0-6.3L101.9,76c1.8-1.7,4.5-1.7,6.3,0
			l0,0C110,77.7,110,80.5,108.3,82.3C108.3,82.3,108.3,82.3,108.3,82.3z"/>
		<path class="st1" d="M124.4,64.5H27.1c-5.2,0-9.4-4.2-9.4-9.4c0,0,0,0,0,0V13.4c0-5.2,4.2-9.4,9.4-9.4c0,0,0,0,0,0h97.3
			c5.2,0,9.4,4.2,9.4,9.4c0,0,0,0,0,0v41.7C133.8,60.3,129.6,64.5,124.4,64.5z"/>
		<path class="st1" d="M138.1,129.1H13.4c-5.2,0-9.4-4.2-9.4-9.4c0,0,0,0,0,0V73.9c0-5.2,4.2-9.4,9.4-9.4c0,0,0,0,0,0h124.7
			c5.2,0,9.4,4.2,9.4,9.4c0,0,0,0,0,0v45.8C147.5,124.9,143.3,129.1,138.1,129.1C138.1,129.1,138.1,129.1,138.1,129.1z"/>
		<path class="st0" d="M117.5,26.9H34c-2.2,0-3.9-1.7-3.9-3.9l0,0c0-2.2,1.7-3.9,3.9-3.9h83.4c2.2,0,3.9,1.7,3.9,3.9l0,0l0,0
			C121.3,25.1,119.7,26.9,117.5,26.9C117.5,26.9,117.5,26.9,117.5,26.9z"/>
		<path class="st0" d="M117.5,49.2H34c-2.2,0-3.9-1.7-3.9-3.9l0,0l0,0c0-2.2,1.7-3.9,3.9-3.9h83.4c2.2,0,3.9,1.7,3.9,3.9
			c0,0,0,0,0,0l0,0C121.3,47.4,119.6,49.2,117.5,49.2z"/>
	</g>
</g>
</svg>
