<?xml version="1.0" encoding="utf-8"?>
<!-- Generator: Adobe Illustrator 25.0.0, SVG Export Plug-In . SVG Version: 6.00 Build 0)  -->
<svg version="1.1" id="图层_1" xmlns="http://www.w3.org/2000/svg" xmlns:xlink="http://www.w3.org/1999/xlink" x="0px" y="0px"
	 viewBox="0 0 145.8 141.2" style="enable-background:new 0 0 145.8 141.2;" xml:space="preserve">
<style type="text/css">
	.st0{fill:#0D1C4F;}
	.st1{fill:#0D1C4F;stroke:#0D1C4F;stroke-width:2;stroke-miterlimit:10;}
</style>
<g id="图层_2_1_">
	<g id="图层_1-2">
		<path class="st0" d="M120.9,61.5v19c0,2.2-1.3,3.9-3,3.9l0,0c-1.7,0-3-1.7-3-3.9v-19c0-2.2,1.3-3.9,3-3.9l0,0
			C119.6,57.6,120.9,59.4,120.9,61.5z"/>
		<path class="st0" d="M30.7,30.7h61.2c3.1,0,4.7,1.6,4.7,4.7s-1.6,4.7-4.7,4.7H30.7c-3.1,0-4.7-1.6-4.7-4.7
			C26,32.1,27.6,30.7,30.7,30.7z"/>
		<path class="st0" d="M30.7,54.1h61.2c3.1,0,4.7,1.6,4.7,4.7s-1.6,4.7-4.7,4.7H30.7c-3.1,0-4.7-1.6-4.7-4.7S27.6,54.1,30.7,54.1z"
			/>
		<path class="st0" d="M30.7,77.7h22.5c3.1,0,4.7,1.6,4.7,4.7s-1.6,4.7-4.7,4.7H30.7c-3.1,0-4.7-1.6-4.7-4.7S27.6,77.7,30.7,77.7z"
			/>
		<path class="st0" d="M30.7,101.1h22.5c3.1,0,4.7,1.6,4.7,4.7s-1.6,4.7-4.7,4.7H30.7c-3.1,0-4.7-1.6-4.7-4.7S27.6,101.1,30.7,101.1
			z"/>
		<path class="st0" d="M113,117.7v14.1H9.5V9.4H113v41.4h9.4V9.4c0-5.2-4.2-9.4-9.4-9.4c0,0,0,0,0,0H9.5C4.3,0,0,4.3,0,9.5v122.3
			c0,5.2,4.2,9.4,9.4,9.4c0,0,0,0,0,0h103.5c5.2,0,9.4-4.2,9.4-9.4c0,0,0,0,0,0v-14.1H113z"/>
		<path class="st1" d="M117.8,110.3c-3.5,0-7-0.7-10.3-2.1c-3.2-1.4-6.1-3.4-8.5-5.8c-2.4-2.4-4.4-5.3-5.7-8.5
			c-2.2-5.3-2.7-11.1-1.4-16.6c0.5-2,1.2-3.9,2.1-5.8c0.9-1.9,2-3.6,3.4-5.1c1.4-1.6,2.9-3.1,4.6-4.3c0.4-0.3,1-0.5,1.5-0.5h0.4
			c0.7,0.1,1.3,0.5,1.7,1c0.4,0.5,0.6,1.2,0.5,1.9c-0.1,0.7-0.5,1.3-1,1.7c-8,5.9-11,16.5-7.1,25.7c1.1,2.6,2.7,4.9,4.6,6.9
			c2,2,4.3,3.6,6.9,4.7c2.7,1.1,5.5,1.7,8.4,1.7c2.9,0,5.7-0.6,8.4-1.7c2.6-1.1,4.9-2.7,6.9-4.7c2-2,3.6-4.3,4.7-6.9
			c1.1-2.7,1.7-5.5,1.7-8.4c0-3.4-0.8-6.8-2.4-9.9c-1.6-3.1-3.9-5.7-6.8-7.7c-0.6-0.4-1-0.9-1.1-1.6c-0.1-0.7,0-1.3,0.4-1.9
			c0.3-0.6,0.9-0.9,1.6-1h0.5c0.5,0,1.1,0.2,1.5,0.5c1.8,1.2,3.4,2.7,4.8,4.3c1.4,1.6,2.6,3.3,3.6,5.2c1,1.9,1.8,3.8,2.3,5.9
			c0.5,2.1,0.8,4.2,0.8,6.3c0,3.6-0.7,7.1-2.1,10.4c-1.4,3.2-3.3,6-5.7,8.5c-2.4,2.4-5.3,4.4-8.5,5.7
			C125.1,109.6,121.5,110.3,117.8,110.3z"/>
	</g>
</g>
</svg>
