<?xml version="1.0" encoding="utf-8"?>
<!-- Generator: Adobe Illustrator 25.0.0, SVG Export Plug-In . SVG Version: 6.00 Build 0)  -->
<svg version="1.1" id="图层_1" xmlns="http://www.w3.org/2000/svg" xmlns:xlink="http://www.w3.org/1999/xlink" x="0px" y="0px"
	 viewBox="0 0 124.5 138.1" style="enable-background:new 0 0 124.5 138.1;" xml:space="preserve">
<style type="text/css">
	.st0{fill:none;stroke:#0D1C4F;stroke-width:8;stroke-miterlimit:10;}
	.st1{fill:#0D1C4F;}
</style>
<g id="图层_2_1_">
	<g id="图层_1-2">
		<path class="st0" d="M110.7,48.6H13.4c-5.2,0-9.4-4.2-9.4-9.4c0,0,0,0,0,0V13.4C4,8.2,8.2,4,13.4,4c0,0,0,0,0,0h97.3
			c5.2,0,9.4,4.2,9.4,9.4c0,0,0,0,0,0v25.8c0,5.2-4.1,9.4-9.3,9.4C110.8,48.6,110.7,48.6,110.7,48.6z"/>
		<path class="st0" d="M46,73.3v51.4c0,5.2-4.2,9.4-9.4,9.4c0,0,0,0,0,0H13.4c-5.2,0-9.4-4.2-9.4-9.4c0,0,0,0,0,0V73.3
			c0-5.2,4.2-9.4,9.4-9.4c0,0,0,0,0,0h23.2C41.8,63.9,46,68.1,46,73.3C46,73.3,46,73.3,46,73.3z"/>
		<path class="st1" d="M120.6,71.2H60.1c-2.2,0-3.9-1.7-3.9-3.9l0,0l0,0c0-2.2,1.7-3.9,3.9-3.9c0,0,0,0,0,0h60.5
			c2.2,0,3.9,1.7,3.9,3.9l0,0l0,0C124.5,69.5,122.8,71.2,120.6,71.2L120.6,71.2z"/>
		<path class="st1" d="M120.6,93.5H60.1c-2.2,0-3.9-1.7-3.9-3.9l0,0l0,0c0-2.2,1.7-3.9,3.9-3.9c0,0,0,0,0,0h60.5
			c2.2,0,3.9,1.7,3.9,3.9l0,0l0,0C124.5,91.8,122.8,93.5,120.6,93.5L120.6,93.5z"/>
		<path class="st1" d="M120.6,115.8H60.1c-2.2,0-3.9-1.7-3.9-3.9l0,0l0,0c0-2.2,1.7-3.9,3.9-3.9c0,0,0,0,0,0h60.5
			c2.2,0,3.9,1.7,3.9,3.9l0,0l0,0C124.5,114.1,122.8,115.8,120.6,115.8L120.6,115.8z"/>
		<path class="st1" d="M120.6,136.9H60.1c-2.2,0-3.9-1.7-3.9-3.9l0,0c0-2.2,1.7-3.9,3.9-3.9h60.5c2.2,0,3.9,1.7,3.9,3.9l0,0
			C124.5,135.2,122.8,136.9,120.6,136.9z"/>
	</g>
</g>
</svg>
