<?xml version="1.0" encoding="utf-8"?>
<!-- Generator: Adobe Illustrator 25.0.0, SVG Export Plug-In . SVG Version: 6.00 Build 0)  -->
<svg version="1.1" id="图层_1" xmlns="http://www.w3.org/2000/svg" xmlns:xlink="http://www.w3.org/1999/xlink" x="0px" y="0px"
	 viewBox="0 0 142.9 141.2" style="enable-background:new 0 0 142.9 141.2;" xml:space="preserve">
<style type="text/css">
	.st0{fill:#0D1C4F;}
	.st1{fill:none;stroke:#0D1C4F;stroke-width:6;stroke-miterlimit:10;}
</style>
<g id="图层_2_1_">
	<g id="图层_1-2">
		<path class="st0" d="M30.7,30.6h61.2c3.1,0,4.7,1.6,4.7,4.7S95,40,91.9,40H30.7c-3.1,0-4.7-1.6-4.7-4.7S27.6,30.6,30.7,30.6z"/>
		<path class="st0" d="M30.7,54.1h61.2c3.1,0,4.7,1.6,4.7,4.7s-1.6,4.7-4.7,4.7H30.7c-3.1,0-4.7-1.6-4.7-4.7S27.6,54.1,30.7,54.1z"
			/>
		<path class="st0" d="M30.7,77.6h22.5c3.1,0,4.7,1.6,4.7,4.7S56.3,87,53.2,87H30.7c-3.1,0-4.7-1.6-4.7-4.7S27.6,77.6,30.7,77.6z"/>
		<path class="st0" d="M30.7,101.1h22.5c3.1,0,4.7,1.6,4.7,4.7s-1.6,4.7-4.7,4.7H30.7c-3.1,0-4.7-1.6-4.7-4.7S27.6,101.1,30.7,101.1
			z"/>
		<path class="st0" d="M113,117.6v14.1H9.5V9.4H113v41.4h9.4V9.4c0-5.2-4.2-9.4-9.4-9.4c0,0,0,0,0,0H9.5C4.3,0,0,4.3,0,9.5v122.3
			c0,5.2,4.2,9.4,9.4,9.4c0,0,0,0,0,0h103.5c5.2,0,9.4-4.2,9.4-9.4c0,0,0,0,0,0v-14.1L113,117.6L113,117.6z"/>
		<circle class="st1" cx="116.4" cy="83.5" r="23.5"/>
		<path class="st0" d="M125.4,91.1h-9.3c-1.7,0-3-1.3-3-3l0,0c0-1.7,1.3-3,3-3h9.3c1.7,0,3,1.3,3,3l0,0
			C128.4,89.8,127.1,91.1,125.4,91.1z"/>
		<path class="st0" d="M118.5,73.6v14.5c0,1.7-1.3,3-3,3l0,0c-1.7,0-3-1.3-3-3V73.6c0-1.7,1.3-3,3-3l0,0
			C117.2,70.6,118.5,71.9,118.5,73.6z"/>
	</g>
</g>
</svg>
