<?xml version="1.0" encoding="utf-8"?>
<!-- Generator: Adobe Illustrator 25.0.0, SVG Export Plug-In . SVG Version: 6.00 Build 0)  -->
<svg version="1.1" id="图层_1" xmlns="http://www.w3.org/2000/svg" xmlns:xlink="http://www.w3.org/1999/xlink" x="0px" y="0px"
	 viewBox="0 0 200 200" style="enable-background:new 0 0 200 200;" xml:space="preserve">
<style type="text/css">
	.st0{fill:#213B4F;}
</style>
<g>
	<path class="st0" d="M100.1,110.9c-7.3,0-13.3-5.9-13.3-13.2c0-7.3,5.9-13.3,13.3-13.3c7.2,0,13.1,5.9,13.1,13.3
		C113.2,105,107.3,110.9,100.1,110.9z M100.1,91.1c-3.6,0-6.5,2.9-6.5,6.5c0,3.6,2.9,6.5,6.5,6.5c3.4,0,6.3-3,6.3-6.5
		C106.4,94.1,103.5,91.1,100.1,91.1z"/>
	<path class="st0" d="M100.1,129.7c-47.8,0-98.7-11.2-98.7-32c0-20.8,50.9-32,98.7-32c23.4,0,45.2,2.4,62.9,7
		c1.8,0.5,2.9,2.3,2.4,4.1c-0.5,1.8-2.3,2.9-4.1,2.4c-17.2-4.5-38.4-6.8-61.3-6.8c-54.2,0-92,13.3-92,25.3c0,12,37.8,25.3,92,25.3
		c9.9,0,20.1-0.5,30.5-1.6c1.8-0.2,3.5,1.2,3.7,3c0.2,1.8-1.2,3.5-3,3.7C120.7,129.2,110.2,129.7,100.1,129.7z M155.7,124.4
		c-1.5,0-2.9-1.1-3.3-2.6c-0.4-1.8,0.7-3.6,2.6-4c27.2-6.1,36.9-14.3,36.9-20.1c0-4.5-5.7-9.4-16.1-13.7c-1.7-0.7-2.5-2.7-1.8-4.4
		c0.7-1.7,2.7-2.5,4.4-1.8c13.5,5.6,20.3,12.3,20.3,19.9c0,11.1-15,20.6-42.2,26.6C156.2,124.3,155.9,124.4,155.7,124.4z"/>
	<path class="st0" d="M169.7,89.2c-6.2,0-11.3-5-11.3-11.1S163.5,67,169.7,67c6.1,0,11.1,5,11.1,11.1S175.8,89.2,169.7,89.2z
		 M169.7,73.7c-2.6,0-4.5,1.9-4.5,4.4c0,2.4,2,4.4,4.5,4.4c2.4,0,4.4-2,4.4-4.4C174.1,75.7,172.1,73.7,169.7,73.7z"/>
	<path class="st0" d="M142.6,184.8c-1.6,0-3.3-0.2-5.1-0.7c-17.5-4.7-43.7-33-65.3-70.5C60.3,92.9,51.5,72.9,46.8,55.6
		c-0.5-1.8,0.6-3.6,2.4-4.1c1.8-0.5,3.6,0.6,4.1,2.4c4.5,16.4,13.3,36.5,24.8,56.4c20.4,35.5,45.6,63.1,61.2,67.3
		c2.7,0.7,5,0.6,6.6-0.3c1.7-1,2.9-2.8,3.6-5.6c4.2-15.5-7.2-51.2-27.6-86.7c-5.8-9.8-11.2-18.2-16.6-25.6c-1.1-1.5-0.8-3.6,0.7-4.7
		c1.5-1.1,3.6-0.8,4.7,0.7c5.5,7.6,11.1,16.1,17,26.2c21.6,37.6,33,74.5,28.3,91.9c-1.2,4.5-3.5,7.8-6.8,9.7
		C147.3,184.2,145.1,184.8,142.6,184.8z M46.9,42.9c-1.7,0-3.1-1.2-3.3-2.9c-1.8-14.6,0.6-23.9,7.2-27.7c9.7-5.6,25.4,2.7,44.1,23.4
		c1.2,1.4,1.1,3.5-0.2,4.7c-1.4,1.2-3.5,1.1-4.7-0.2c-18.8-20.7-31-24.9-35.8-22.1c-3.9,2.2-5.3,9.7-3.9,21c0.2,1.8-1.1,3.5-2.9,3.8
		C47.2,42.9,47,42.9,46.9,42.9z"/>
	<path class="st0" d="M48.4,58.2c-3.9,0-7.7-2-9.7-5.6l0,0c-1.5-2.6-1.9-5.6-1.2-8.5c0.7-2.9,2.6-5.3,5.2-6.8
		c2.6-1.5,5.6-1.9,8.5-1.1c2.9,0.8,5.2,2.7,6.7,5.3c3,5.2,1.3,12.1-3.9,15.2C52.2,57.8,50.2,58.2,48.4,58.2z M48.2,42.6
		c-0.7,0-1.5,0.2-2.2,0.6c-1,0.6-1.7,1.5-2,2.7c-0.3,1.1-0.1,2.4,0.5,3.4v0c1.2,2.1,3.9,2.9,6.2,1.7c1.9-1.2,2.6-3.9,1.4-6
		c-0.6-1.1-1.6-1.8-2.7-2.2C49,42.7,48.6,42.6,48.2,42.6z"/>
	<path class="st0" d="M53,182.2c-2.5,0-4.7-0.6-6.6-1.7c-9.7-5.4-10.4-23.1-1.9-49.8c0.6-1.8,2.5-2.7,4.2-2.2
		c1.8,0.6,2.8,2.5,2.2,4.2c-8.5,26.7-5.9,39.3-1.2,41.9c3.9,2.3,11.1-0.3,20.1-7.1c1.5-1.1,3.6-0.8,4.7,0.6c1.1,1.5,0.8,3.6-0.6,4.7
		C65.8,179.1,58.7,182.2,53,182.2z M83.3,163.1c-0.9,0-1.7-0.3-2.4-1c-1.3-1.3-1.3-3.4,0-4.8c12.3-12.3,25.3-29.9,36.6-49.5
		c27-46.9,34.3-86.3,24-92.3c-1.6-0.9-3.8-1-6.6-0.3c-15.6,4.2-40.8,31.9-61.2,67.3c-5.1,8.7-9.9,18-14.1,27.4
		c-0.8,1.7-2.7,2.4-4.4,1.7c-1.7-0.8-2.5-2.7-1.7-4.4c4.3-9.7,9.2-19.1,14.4-28c21.6-37.4,47.8-65.8,65.3-70.4
		c4.5-1.2,8.5-0.9,11.7,1c18,10.4,2.3,60.1-21.5,101.5c-11.8,20.4-24.8,38.1-37.7,50.9C85,162.8,84.1,163.1,83.3,163.1z"/>
	<path class="st0" d="M77.6,176.4c-1.9,0-3.8-0.5-5.5-1.5c-2.6-1.5-4.4-3.9-5.2-6.8c-0.7-2.9-0.3-5.9,1.2-8.5
		c1.5-2.6,3.9-4.4,6.8-5.2c2.9-0.7,5.9-0.3,8.5,1.2c2.4,1.3,4.3,3.6,5.1,6.4c0.8,2.9,0.4,6.1-1.1,8.7
		C85.3,174.4,81.5,176.4,77.6,176.4z M77.7,160.9c-0.4,0-0.7,0-1.1,0.1c-1.1,0.3-2.1,1-2.7,2c-0.6,1.1-0.8,2.3-0.5,3.4
		c0.3,1.1,1,2.1,2,2.7c1,0.6,2.2,0.7,3.3,0.4c1.2-0.3,2.1-1.1,2.7-2.2v0c0.6-1.1,0.8-2.3,0.5-3.5c-0.3-1-1-1.9-1.9-2.3
		C79.3,161.1,78.5,160.9,77.7,160.9z"/>
</g>
</svg>
