<?xml version="1.0" encoding="utf-8"?>
<!-- Generator: Adobe Illustrator 25.0.0, SVG Export Plug-In . SVG Version: 6.00 Build 0)  -->
<svg version="1.1" id="图层_1" xmlns="http://www.w3.org/2000/svg" xmlns:xlink="http://www.w3.org/1999/xlink" x="0px" y="0px"
	 viewBox="0 0 200 200" style="enable-background:new 0 0 200 200;" xml:space="preserve">
<style type="text/css">
	.st0{fill:none;stroke:#FFFFFF;stroke-width:8;stroke-linecap:round;stroke-linejoin:round;stroke-miterlimit:10;}
</style>
<g>
	<g>
		<ellipse class="st0" cx="141.8" cy="33" rx="41.5" ry="16"/>
		<path class="st0" d="M100.3,33v22.7c0,8.9,18.6,16,41.5,16s41.5-7.2,41.5-16V33"/>
		<path class="st0" d="M100.3,55.7v22.7c0,8.9,18.6,16,41.5,16s41.5-7.2,41.5-16V55.7"/>
		<path class="st0" d="M132.3,116.7c3.1,0.3,6.2,0.4,9.5,0.4c22.9,0,41.5-7.2,41.5-16V78.4"/>
		<line class="st0" x1="100.3" y1="78.4" x2="100.3" y2="101.1"/>
		<path class="st0" d="M141.8,139.8c22.9,0,41.5-7.2,41.5-16v-22.7"/>
		<path class="st0" d="M137.1,162.4c1.6,0.1,3.1,0.1,4.7,0.1c22.9,0,41.5-7.2,41.5-16v-22.7"/>
	</g>
	<g>
		<ellipse class="st0" cx="58.8" cy="78.4" rx="41.5" ry="16"/>
		<line class="st0" x1="100.3" y1="101.1" x2="100.3" y2="78.4"/>
		<path class="st0" d="M17.3,78.4v22.7c0,8.9,18.6,16,41.5,16c3.3,0,6.4-0.1,9.5-0.4"/>
		<path class="st0" d="M17.3,101.1v22.7c0,8.9,18.6,16,41.5,16"/>
		<line class="st0" x1="100.3" y1="146.5" x2="100.3" y2="123.8"/>
		<path class="st0" d="M17.3,123.8v22.7c0,8.9,18.6,16,41.5,16c1.6,0,3.2,0,4.8-0.1"/>
	</g>
	<g>
		<g>
			<g>
				<path class="st0" d="M114,132.2c0,0-3.2-8.4-13.7-8.4c-7.5,0-13.7,3.4-14.1,8.4c-0.3,4.1,2.5,8.4,13.9,10.1"/>
				<path class="st0" d="M84.9,153.4c0,0,3.5,9.1,14.8,9.1c8.1,0,14.9-3.7,15.4-9.1c0.4-4.5-2.7-9.1-15.1-11"/>
			</g>
			<line class="st0" x1="100.3" y1="117.7" x2="100.3" y2="168.6"/>
		</g>
	</g>
	<g>
		<circle class="st0" cx="100.3" cy="143.1" r="41.5"/>
	</g>
</g>
</svg>
