<?xml version="1.0" encoding="utf-8"?>
<!-- Generator: Adobe Illustrator 25.0.0, SVG Export Plug-In . SVG Version: 6.00 Build 0)  -->
<svg version="1.1" id="图层_1" xmlns="http://www.w3.org/2000/svg" xmlns:xlink="http://www.w3.org/1999/xlink" x="0px" y="0px"
	 viewBox="0 0 157.7 135.7" style="enable-background:new 0 0 157.7 135.7;" xml:space="preserve">
<style type="text/css">
	.st0{fill:none;stroke:#0D1C4F;stroke-width:9;stroke-miterlimit:10;}
	.st1{fill:#0D1C4F;}
</style>
<g id="图层_2_1_">
	<g id="图层_1-2">
		<path class="st0" d="M145.2,99.4H12.5c-4.4,0-8-3.6-8-8V12.5c0-2.1,0.9-4.1,2.3-5.7c1.5-1.5,3.6-2.3,5.7-2.3h132.7
			c4.4,0,8,3.6,8,8v78.9C153.2,95.8,149.6,99.4,145.2,99.4z"/>
		<rect x="74.3" y="99.2" class="st1" width="8.7" height="31.8"/>
		<rect x="50.7" y="125.1" class="st1" width="55.9" height="10.6"/>
		<path class="st0" d="M6.3,74.2c6.6-2.8,13.7-4.3,20.9-4.4c14.8-0.2,19.1,5.9,28.7,6.8c23.9,2.2,33.1-32.1,59.8-35.1
			c7.9-0.9,20.4,0.6,37.3,14.8"/>
	</g>
</g>
</svg>
