<?xml version="1.0" encoding="utf-8"?>
<!-- Generator: Adobe Illustrator 25.0.0, SVG Export Plug-In . SVG Version: 6.00 Build 0)  -->
<svg version="1.1" id="图层_1" xmlns="http://www.w3.org/2000/svg" xmlns:xlink="http://www.w3.org/1999/xlink" x="0px" y="0px"
	 viewBox="0 0 200 200" style="enable-background:new 0 0 200 200;" xml:space="preserve">
<style type="text/css">
	.st0{fill:#FFFFFF;}
</style>
<g>
	<path class="st0" d="M141.9,194.7h-130c-2,0-3.7-1.6-3.7-3.7v-1.5c0-0.8,0.2-1.5,0.7-2.1c17-24.2,25.9-51.6,25.9-79.1
		c0-10.1-1.2-20.4-3.6-30.5c-0.3-1.1,0-2.2,0.7-3.1c0.7-0.9,1.8-1.4,2.9-1.4h84.5c1.1,0,2.2,0.5,2.9,1.4c0.7,0.9,1,2,0.7,3.1
		c-2.4,10.1-3.6,20.4-3.6,30.5c0,27.4,8.9,54.8,25.7,79.1c0.4,0.6,0.6,1.3,0.6,2.1v1.5C145.5,193.1,143.9,194.7,141.9,194.7z
		 M17.7,187.4H136c-15.8-24.5-24.2-51.7-24.2-79.1c0-9.2,0.9-18.4,2.8-27.6H39.3c1.8,9.2,2.8,18.5,2.8,27.6
		C42.1,135.7,33.7,162.9,17.7,187.4z"/>
	<path class="st0" d="M119.2,80.7c-2,0-3.7-1.6-3.7-3.7v-9.1H38.4V77c0,2-1.6,3.7-3.7,3.7c-2,0-3.7-1.6-3.7-3.7V64.2
		c0-2,1.6-3.7,3.7-3.7h84.5c2,0,3.7,1.6,3.7,3.7V77C122.8,79,121.2,80.7,119.2,80.7z"/>
	<path class="st0" d="M194.8,194.7h-41.7c-2,0-3.7-1.6-3.7-3.7c0-2,1.6-3.7,3.7-3.7h35.7c-12.9-20.1-19.5-41.8-19.5-64.6
		c0-7.3,0.7-14.7,2.2-22h-44.3c-2,0-3.7-1.6-3.7-3.7c0-2,1.6-3.7,3.7-3.7H176c1.1,0,2.2,0.5,2.9,1.4c0.7,0.9,1,2,0.7,3.1
		c-1.9,8.2-2.9,16.6-2.9,24.9c0,23,7.1,44.8,21.2,64.9c0.4,0.6,0.7,1.4,0.7,2.1v1.3C198.4,193.1,196.8,194.7,194.8,194.7z"/>
	<path class="st0" d="M176,100.7c-2,0-3.7-1.6-3.7-3.7v-9.3h-43.6c-2,0-3.7-1.6-3.7-3.7c0-2,1.6-3.7,3.7-3.7H176
		c2,0,3.7,1.6,3.7,3.7v13C179.6,99.1,178,100.7,176,100.7z"/>
	<path class="st0" d="M43.8,57.5c-1.3,0-2.5-0.7-3.2-1.9c-2-3.5-3.1-7.4-3.1-11.3c0-12.4,10.2-22.5,22.7-22.5
		c4.3,0,8.5,1.2,11.9,3.4c1.7,1.1,2.2,3.4,1.1,5.1c-1.1,1.7-3.4,2.2-5.1,1.1c-2.3-1.5-5-2.2-8-2.2c-8.5,0-15.3,6.8-15.3,15.1
		c0,2.6,0.7,5.2,2.1,7.7c1,1.8,0.4,4-1.4,5C45,57.4,44.4,57.5,43.8,57.5z"/>
	<path class="st0" d="M106.9,35.5c-2,0-3.7-1.6-3.7-3.7c0-11.1-8.9-20.1-19.9-20.1c-9.2,0-17,5.9-19.4,14.8c-0.5,2-2.5,3.1-4.5,2.6
		c-2-0.5-3.1-2.5-2.6-4.5C60.1,12.7,71,4.4,83.3,4.4c15,0,27.2,12.3,27.2,27.4C110.5,33.9,108.9,35.5,106.9,35.5z"/>
	<path class="st0" d="M127.4,41.3c-0.3,0-0.6,0-0.9-0.1c-2-0.5-3.2-2.5-2.7-4.4c0.1-0.4,0.1-1.3,0.1-1.9c0-7.8-8.4-13.6-16.5-8.2
		c-1.7,1.1-4,0.7-5.1-1c-1.1-1.7-0.7-4,1-5.1c3.4-2.3,6.9-3.4,10.5-3.4c9.7,0,17.5,7.9,17.5,17.7c0,1,0,2.4-0.3,3.7
		C130.5,40.2,129,41.3,127.4,41.3z"/>
	<path class="st0" d="M137.5,76.1c-3.6,0-6.9-0.9-9.7-2.7c-1.7-1.1-2.2-3.4-1.1-5.1c1.1-1.7,3.4-2.2,5.1-1.1
		c1.7,1.1,3.6,1.6,5.8,1.6c5.6,0,10.2-4.6,10.2-10.1c0-1.1-0.2-2.3-0.5-3.2c-0.6-1.9,0.4-4,2.3-4.6c1.9-0.6,4,0.4,4.6,2.3
		c0.6,1.6,0.8,3.5,0.8,5.5C155,68.3,147.2,76.1,137.5,76.1z"/>
	<path class="st0" d="M155.5,65.1c-1.5,0-3.7-0.2-5.7-1.3c-1.8-0.9-2.5-3.1-1.6-4.9c0.9-1.8,3.1-2.5,4.9-1.6
		c0.6,0.3,1.5,0.5,2.5,0.5c4.5,0,8.2-3.7,8.2-8.2c0-2,1.6-3.9,3.7-3.9c2,0,3.7,1.4,3.7,3.5C171,58.1,164,65.1,155.5,65.1z"/>
	<path class="st0" d="M169.7,53c-1.2,0-2.1-0.2-2.9-0.4c-2-0.5-3.3-2.6-2.8-4.5c0.5-1.9,2.3-3.2,4.2-2.7c0,0,0.4,0.1,0.5,0.1
		c0.6,0.1,0.8,0.2,1,0.2c4.5,0,8.2-3.8,8.2-8.4c0-4.4-3.8-8.2-8.2-8.2c-2,0-4.1,0.9-5.6,2.4c-1.4,1.4-3.8,1.4-5.2,0
		c-1.4-1.4-1.4-3.8,0-5.2c2.9-2.9,6.8-4.5,10.8-4.5c8.6,0,15.5,7,15.5,15.6C185.3,45.9,178.3,53,169.7,53z"/>
	<path class="st0" d="M127.2,35.3c-0.5,0-0.9-0.1-1.4-0.3c-1.9-0.8-2.8-2.9-2-4.8c3.6-8.7,12-14.4,21.3-14.4c8,0,15.5,4.2,19.6,11.1
		c1,1.7,0.5,4-1.3,5c-1.7,1-4,0.5-5-1.3c-2.7-4.6-7.8-7.5-13.3-7.5c-6.5,0-12,3.8-14.5,9.8C130,34.4,128.6,35.3,127.2,35.3z"/>
	<path class="st0" d="M76.8,151.7c-5.6,0-10.1-4.6-10.1-10.1c0-5.7,4.6-10.4,10.1-10.4S87,135.8,87,141.6
		C87,147.2,82.4,151.7,76.8,151.7z M76.8,138.5c-1.6,0-2.8,1.3-2.8,3c0,1.4,1.1,2.8,2.8,2.8c1.7,0,2.8-1.5,2.8-2.8
		C79.6,139.9,78.4,138.5,76.8,138.5z"/>
	<path class="st0" d="M68.2,130.5c-1.2,0-2.5-0.6-3.2-1.8l-3.5-5.8c-1-1.7-0.5-3.9,1.2-5c7.9-4.9,19.8-5,28.2,0
		c0.8,0.5,1.5,1.3,1.7,2.3c0.2,1,0.1,2-0.5,2.8l-3.7,5.8c-1.1,1.7-3.3,2.2-5.1,1.1c-1.7-1.1-2.2-3.3-1.2-5.1l1.5-2.3
		c-4.2-1.5-9.6-1.5-13.9,0l1.4,2.4c1,1.7,0.5,4-1.3,5C69.5,130.4,68.8,130.5,68.2,130.5z"/>
	<path class="st0" d="M65.2,166c-0.7,0-1.4-0.2-1.9-0.6c-3-1.9-7.1-5.1-10.1-10.1c-2.5-4-3.7-8.8-3.7-14.2c0-2,1.6-3.7,3.7-3.7H60
		c2,0,3.7,1.6,3.7,3.7c0,2-1.6,3.7-3.7,3.7h-3c0.4,2.5,1.2,4.7,2.4,6.7c1.1,1.9,2.7,3.8,4.6,5.4l1.4-2.5c1-1.8,3.3-2.4,5-1.4
		c1.8,1,2.4,3.3,1.4,5l-3.5,6c-0.5,0.9-1.3,1.5-2.3,1.7C65.8,165.9,65.5,166,65.2,166z"/>
	<path class="st0" d="M88.5,166c-0.3,0-0.6,0-0.9-0.1c-0.9-0.3-1.8-0.9-2.2-1.7l-3.5-6c-1-1.8-0.4-4,1.4-5c1.8-1,4-0.4,5,1.4
		l1.4,2.5c1.8-1.5,3.4-3.4,4.8-5.5c1.1-2,1.9-4.3,2.3-6.6h-3.1c-2,0-3.7-1.6-3.7-3.7c0-2,1.6-3.7,3.7-3.7h6.9c1.9,0,3.6,1.5,3.7,3.5
		c0.3,4.8-1,9.7-3.5,14.3c-2.9,4.5-6.3,7.8-10.4,10.2C89.8,165.8,89.2,166,88.5,166z"/>
</g>
</svg>
