<?xml version="1.0" encoding="utf-8"?>
<!-- Generator: Adobe Illustrator 25.0.0, SVG Export Plug-In . SVG Version: 6.00 Build 0)  -->
<svg version="1.1" id="图层_1" xmlns="http://www.w3.org/2000/svg" xmlns:xlink="http://www.w3.org/1999/xlink" x="0px" y="0px"
	 viewBox="0 0 150.8 141.6" style="enable-background:new 0 0 150.8 141.6;" xml:space="preserve">
<style type="text/css">
	.st0{fill:none;stroke:#0D1C4F;stroke-width:9;stroke-miterlimit:10;}
	.st1{fill:#0D1C4F;}
</style>
<g id="图层_2_1_">
	<g id="图层_1-2">
		<path class="st0" d="M134.6,137.1H16.1c-3.9,0-7.1-4-7.1-8.9V40.1c0-2.3,0.8-4.5,2.1-6.4c1.2-1.6,3.1-2.6,5.1-2.6h118.4
			c3.9,0,7.1,4,7.1,8.9v88.1C141.7,133.1,138.5,137.1,134.6,137.1z"/>
		<path class="st0" d="M138.7,31.2H12.1c-4.2,0-7.6-1-7.6-2.3V6.7c0-0.1,0.1-1,2.2-1.6c1.8-0.4,3.6-0.7,5.4-0.6h126.6
			c4.2,0,7.6,1,7.6,2.3v22.1C146.3,30.2,142.9,31.2,138.7,31.2z"/>
		<path class="st1" d="M125.2,73.2H25.5c-1.9,0-3.5-1.5-3.5-3.5c0,0,0,0,0,0l0,0c0-1.9,1.5-3.5,3.5-3.5c0,0,0,0,0,0h99.7
			c1.9,0,3.5,1.5,3.5,3.5c0,0,0,0,0,0l0,0C128.7,71.6,127.1,73.2,125.2,73.2z"/>
		<path class="st1" d="M125.2,102H25.5c-1.9,0-3.5-1.5-3.5-3.5c0,0,0,0,0,0l0,0c0-1.9,1.5-3.5,3.5-3.5c0,0,0,0,0,0h99.7
			c1.9,0,3.5,1.5,3.5,3.5c0,0,0,0,0,0l0,0C128.7,100.4,127.2,102,125.2,102C125.2,102,125.2,102,125.2,102z"/>
		<rect x="39.3" y="58.8" class="st1" width="14.4" height="21.9"/>
		<rect x="94.1" y="87.6" class="st1" width="14.4" height="21.9"/>
	</g>
</g>
</svg>
