<?xml version="1.0" encoding="utf-8"?>
<!-- Generator: Adobe Illustrator 25.0.0, SVG Export Plug-In . SVG Version: 6.00 Build 0)  -->
<svg version="1.1" id="图层_1" xmlns="http://www.w3.org/2000/svg" xmlns:xlink="http://www.w3.org/1999/xlink" x="0px" y="0px"
	 viewBox="0 0 200 200" style="enable-background:new 0 0 200 200;" xml:space="preserve">
<style type="text/css">
	.st0{fill:none;stroke:#324C5E;stroke-width:10.5001;stroke-linecap:round;stroke-linejoin:round;stroke-miterlimit:22.9256;}
</style>
<path class="st0" d="M15,189.4h177 M30.1,189.4v-177h108v177 M140.4,42h36.5v142.4 M74.1,187.2v-16.1H94v16.1 M46.2,31.4h75.6
	 M156.8,73.3v-9.2 M156.8,104.2v-9.2 M156.8,135.1v-9.2 M156.8,165.9v-9.2 M46.2,49.3h75.6 M46.2,67.2h75.6 M46.2,85.1h75.6
	 M46.2,103h75.6 M46.2,120.9h75.6 M46.2,138.9h75.6 M46.2,156.8h75.6 M45.8,174.9h14 M107.9,174.9h14"/>
</svg>
