<?xml version="1.0" encoding="utf-8"?>
<!-- Generator: Adobe Illustrator 25.0.0, SVG Export Plug-In . SVG Version: 6.00 Build 0)  -->
<svg version="1.1" id="图层_1" xmlns="http://www.w3.org/2000/svg" xmlns:xlink="http://www.w3.org/1999/xlink" x="0px" y="0px"
	 viewBox="0 0 200 200" style="enable-background:new 0 0 200 200;" xml:space="preserve">
<style type="text/css">
	.st0{fill:none;stroke:#213B4F;stroke-width:8;stroke-linecap:round;stroke-linejoin:round;stroke-miterlimit:10;}
	.st1{fill:#213B4F;}
</style>
<circle class="st0" cx="58.9" cy="141.7" r="22.2"/>
<line class="st0" x1="56.1" y1="108.4" x2="61.6" y2="108.4"/>
<line class="st0" x1="58.9" y1="108.4" x2="58.9" y2="119.5"/>
<line class="st0" x1="56.1" y1="175" x2="61.6" y2="175"/>
<line class="st0" x1="58.9" y1="175" x2="58.9" y2="163.9"/>
<line class="st0" x1="25.5" y1="144.4" x2="25.5" y2="138.9"/>
<line class="st0" x1="25.5" y1="141.7" x2="36.6" y2="141.7"/>
<line class="st0" x1="92.2" y1="144.4" x2="92.2" y2="138.9"/>
<line class="st0" x1="92.2" y1="141.7" x2="81.1" y2="141.7"/>
<line class="st0" x1="31.4" y1="122" x2="39.2" y2="114.2"/>
<line class="st0" x1="35.3" y1="118.1" x2="43.2" y2="126"/>
<line class="st0" x1="78.5" y1="169.1" x2="86.3" y2="161.3"/>
<line class="st0" x1="82.4" y1="165.2" x2="74.6" y2="157.4"/>
<line class="st0" x1="78.5" y1="114.2" x2="86.3" y2="122"/>
<line class="st0" x1="82.4" y1="118.1" x2="74.6" y2="126"/>
<line class="st0" x1="31.4" y1="161.3" x2="39.2" y2="169.1"/>
<line class="st0" x1="35.3" y1="165.2" x2="43.2" y2="157.4"/>
<circle class="st1" cx="58.9" cy="150" r="2.8"/>
<circle class="st1" cx="50.5" cy="141.7" r="2.8"/>
<circle class="st1" cx="67.2" cy="141.7" r="2.8"/>
<circle class="st1" cx="58.9" cy="133.3" r="2.8"/>
<circle class="st0" cx="58.9" cy="141.7" r="44.4"/>
<path class="st0" d="M83.5,30.7h95c4.4,0,8-3.6,8-8V14h-111v8.7C75.5,27.1,79.1,30.7,83.5,30.7z"/>
<polyline class="st0" points="131,88.9 147.7,72.3 114.4,72.3 122.7,80.6 "/>
<path class="st0" d="M92.2,186.1h94.4V175c0-3.1-2.5-5.6-5.6-5.6H106"/>
<path class="st0" d="M181,169.4v-23.2c0-2.9-1.2-5.8-3.3-7.8l-35.6-35.6V100v-2.8l35.6-35.6c2.1-2.1,3.3-4.9,3.3-7.8V30.7"/>
<path class="st0" d="M108.7,114l11.2-11.2V100v-2.8L84.3,61.7c-2.1-2.1-3.3-4.9-3.3-7.8V30.7"/>
<line class="st0" x1="131" y1="105.6" x2="131" y2="100"/>
<path class="st0" d="M169.9,169.4v-11.2c0-3.3-2-6.3-5-7.7l-20.8-8.9c-8.4-3.6-17.8-3.9-26.3-0.8l-3.3,1.2"/>
<circle class="st1" cx="131" cy="116.7" r="2.8"/>
</svg>
