<?xml version="1.0" encoding="utf-8"?>
<!-- Generator: Adobe Illustrator 25.0.0, SVG Export Plug-In . SVG Version: 6.00 Build 0)  -->
<svg version="1.1" id="图层_1" xmlns="http://www.w3.org/2000/svg" xmlns:xlink="http://www.w3.org/1999/xlink" x="0px" y="0px"
	 viewBox="0 0 200 200" style="enable-background:new 0 0 200 200;" xml:space="preserve">
<style type="text/css">
	.st0{fill:#213B4F;}
</style>
<g>
	<path class="st0" d="M172.7,89.8c-1.5,0-2.9-0.9-3.5-2.4L150,34.3c-0.2-0.6-0.3-1.3-0.2-1.9l3.7-19.4c0.2-1.3,1.1-2.3,2.3-2.8
		l14.7-5.4c1.1-0.4,2.4-0.3,3.4,0.4c1,0.7,1.6,1.8,1.6,3c9.1,24.7,13.2,50.3,12.1,74.3c-0.1,1.5-1,2.8-2.5,3.3l-11.2,3.9
		C173.5,89.8,173.1,89.8,172.7,89.8z M157.2,32.7l17.6,48.8l5.4-1.9c0.7-21.7-3-44.6-10.8-66.7l-9.2,3.4L157.2,32.7z"/>
	<path class="st0" d="M24.9,97.4c-1.5,0-2.9-0.9-3.5-2.4c-0.7-1.9,0.3-4,2.2-4.7l66.5-24.2c1.9-0.7,4,0.3,4.7,2.2
		c0.7,1.9-0.3,4-2.2,4.7L26.2,97.2C25.8,97.3,25.3,97.4,24.9,97.4z M113.1,65.4c-1.5,0-2.9-0.9-3.4-2.4c-0.7-1.9,0.3-4,2.2-4.7
		l44.9-16.4c1.9-0.7,4,0.3,4.7,2.2c0.7,1.9-0.3,4-2.2,4.7l-44.9,16.4C113.9,65.3,113.5,65.4,113.1,65.4z"/>
	<path class="st0" d="M29.5,109.9c-1.5,0-2.9-0.9-3.5-2.4c-0.7-1.9,0.3-4,2.2-4.7l66.5-24.2c1.9-0.7,4,0.3,4.7,2.2
		c0.7,1.9-0.3,4-2.2,4.7l-66.5,24.2C30.3,109.8,29.9,109.9,29.5,109.9z M117.6,77.7c-1.5,0-2.9-0.9-3.5-2.4c-0.7-1.9,0.3-4,2.2-4.7
		l44.9-16.2c1.9-0.7,4,0.3,4.7,2.2c0.7,1.9-0.3,4-2.2,4.7l-44.9,16.2C118.4,77.7,118,77.7,117.6,77.7z"/>
	<path class="st0" d="M29.5,109.9c-1.5,0-2.9-0.9-3.5-2.4L21.5,95c-0.7-1.9,0.3-4,2.2-4.7c1.9-0.7,4,0.3,4.7,2.2l4.5,12.5
		c0.7,1.9-0.3,4-2.2,4.7C30.3,109.8,29.9,109.9,29.5,109.9z"/>
	<path class="st0" d="M104.4,88.7c-9.3,0-16.8-7.6-16.8-16.8c0-9.2,7.7-17.1,16.8-17.1c9.4,0,17.1,7.7,17.1,17.1
		C121.5,81.2,113.8,88.7,104.4,88.7z M104.4,62.2c-5.1,0-9.5,4.4-9.5,9.7c0,5.2,4.3,9.5,9.5,9.5c5.4,0,9.7-4.3,9.7-9.5
		C114.1,66.5,109.8,62.2,104.4,62.2z"/>
	<path class="st0" d="M29.5,156.8c-2,0-3.7-1.6-3.7-3.7v-46.9c0-2,1.6-3.7,3.7-3.7c2,0,3.7,1.6,3.7,3.7v46.9
		C33.1,155.1,31.5,156.8,29.5,156.8z"/>
	<path class="st0" d="M36.6,194.8c-2,0-3.7-1.6-3.7-3.7v-34.3H26v34.3c0,2-1.6,3.7-3.7,3.7s-3.7-1.6-3.7-3.7v-38
		c0-2,1.6-3.7,3.7-3.7h14.3c2,0,3.7,1.6,3.7,3.7v38C40.3,193.1,38.6,194.8,36.6,194.8z"/>
	<path class="st0" d="M172.7,136.7c-2,0-3.7-1.6-3.7-3.7V86.2c0-2,1.6-3.7,3.7-3.7c2,0,3.7,1.6,3.7,3.7V133
		C176.3,135,174.7,136.7,172.7,136.7z"/>
	<path class="st0" d="M179.8,194.8c-2,0-3.7-1.6-3.7-3.7v-54.4h-6.7v54.4c0,2-1.6,3.7-3.7,3.7c-2,0-3.7-1.6-3.7-3.7V133
		c0-2,1.6-3.7,3.7-3.7h14c2,0,3.7,1.6,3.7,3.7v58.1C183.5,193.1,181.8,194.8,179.8,194.8z"/>
	<path class="st0" d="M194.7,194.8H11.8c-2,0-3.7-1.6-3.7-3.7c0-2,1.6-3.7,3.7-3.7h182.9c2,0,3.7,1.6,3.7,3.7
		C198.4,193.1,196.7,194.8,194.7,194.8z"/>
	<path class="st0" d="M60.6,194.8c-0.4,0-0.9-0.1-1.3-0.2c-1.9-0.7-2.9-2.8-2.2-4.7l35.2-95.5c0.7-1.9,2.8-2.9,4.7-2.2
		c1.9,0.7,2.9,2.8,2.2,4.7L64,192.4C63.5,193.9,62.1,194.8,60.6,194.8z"/>
	<path class="st0" d="M148.5,194.8c-1.5,0-2.9-0.9-3.4-2.4l-35.2-95.5c-0.7-1.9,0.3-4,2.2-4.7c1.9-0.7,4,0.3,4.7,2.2l35.2,95.5
		c0.7,1.9-0.3,4-2.2,4.7C149.3,194.7,148.9,194.8,148.5,194.8z"/>
	<path class="st0" d="M129.5,143c-0.5,0-1-0.1-1.5-0.3L85.4,123c-1.8-0.9-2.6-3-1.8-4.9c0.9-1.8,3-2.6,4.9-1.8l42.5,19.7
		c1.8,0.9,2.6,3,1.8,4.9C132.2,142.2,130.8,143,129.5,143z"/>
	<path class="st0" d="M79.6,143c-1.4,0-2.7-0.8-3.3-2.1c-0.9-1.8,0-4,1.8-4.9l42.5-19.7c1.8-0.8,4-0.1,4.9,1.8c0.8,1.8,0,4-1.8,4.9
		l-42.5,19.7C80.6,142.8,80.1,143,79.6,143z"/>
	<path class="st0" d="M145.4,186.2c-0.5,0-1-0.1-1.5-0.3l-70-32.2c-1.8-0.8-2.6-3-1.8-4.9c0.9-1.8,3-2.7,4.9-1.8l70,32.2
		c1.8,0.8,2.6,3,1.8,4.9C148.2,185.4,146.8,186.2,145.4,186.2z"/>
	<path class="st0" d="M63.6,186.2c-1.4,0-2.7-0.8-3.3-2.1c-0.8-1.8,0-4,1.8-4.9l70-32.2c1.8-0.8,4,0,4.9,1.8c0.8,1.8,0,4-1.8,4.9
		l-70,32.2C64.6,186,64.1,186.2,63.6,186.2z"/>
</g>
</svg>
