<?xml version="1.0" encoding="UTF-8"?>
<svg width="60px" height="54px" viewBox="0 0 60 54" version="1.1" xmlns="http://www.w3.org/2000/svg" xmlns:xlink="http://www.w3.org/1999/xlink">
    <!-- Generator: Sketch 56.3 (81716) - https://sketch.com -->
    <title>btn01</title>
    <desc>Created with Sketch.</desc>
    <g id="页面-1" stroke="none" stroke-width="1" fill="none" fill-rule="evenodd">
        <g id="核心产品-审计" transform="translate(-468.000000, -767.000000)">
            <g id="btn01" transform="translate(468.000000, 767.000000)">
                <path d="M39,53 C50.045695,53 59,43.5979797 59,32 C59,20.4020203 50.045695,11 39,11 C27.954305,11 19,20.4020203 19,32 C19,43.5979797 27.954305,53 39,53 Z" id="椭圆形" fill="#ECF4FF"></path>
                <path d="M39,53.5 C39.6873927,53.5 40.3707354,53.4645005 41.0483637,53.3939794 L40.9448524,52.3993512 C40.3015937,52.4662953 39.652801,52.5 39,52.5 L39,53.5 Z M43.081883,53.0736887 C43.7523095,52.9316132 44.4139278,52.7545903 45.0647782,52.5434904 L44.7562559,51.5922733 C44.1385815,51.7926127 43.5107433,51.9605974 42.8745688,52.0954143 L43.081883,53.0736887 Z M47.0282721,51.7886699 C47.6520602,51.5099733 48.261884,51.1989388 48.8556682,50.8568797 L48.3565028,49.990373 C47.7922498,50.3154202 47.2128769,50.6109235 46.6203531,50.8756518 L47.0282721,51.7886699 Z M50.5679336,49.7525024 C51.1218538,49.3547424 51.6569202,48.9286959 52.171156,48.476062 L51.5104405,47.7254255 C51.0209379,48.1562892 50.5117115,48.5617606 49.9846555,48.9402298 L50.5679336,49.7525024 Z M53.6856371,47.0011644 C54.1493866,46.5018722 54.589888,45.9793251 55.0054514,45.4354743 L54.2108663,44.8283215 C53.8147264,45.3467526 53.3948736,45.8448053 52.9529322,46.3206179 L53.6856371,47.0011644 Z M56.1357371,43.8057913 C56.4978737,43.228757 56.8333557,42.633725 57.1408767,42.0227088 L56.2476297,41.5731425 C55.9542258,42.1561092 55.6341724,42.7237762 55.2887234,43.2742203 L56.1357371,43.8057913 Z M57.988186,40.1182528 C58.2350907,39.4836544 58.4529416,38.8364244 58.6408436,38.1784614 L57.6792859,37.9038584 C57.4998925,38.5320275 57.2919244,39.1498959 57.0562391,39.7556581 L57.988186,40.1182528 Z M59.1205713,36.1380968 C59.2448061,35.4698645 59.3388952,34.7940047 59.4023023,34.1121647 L58.4065984,34.0195701 C58.3460049,34.6711546 58.2561053,35.3169206 58.1374181,35.9553134 L59.1205713,36.1380968 Z M59.5,32.0032561 C59.5,31.3157936 59.4695138,30.6354166 59.4089282,29.9603523 L58.4129314,30.0497409 C58.4708502,30.6950916 58.5,31.3456426 58.5,32 L59.5,32.0032561 Z M59.1330771,27.9297522 C59.0100325,27.2563521 58.8564918,26.5911191 58.6731525,25.9358333 L57.7101348,26.2052714 C57.8852085,26.8310145 58.0318415,27.4663188 58.149364,28.1094976 L59.1330771,27.9297522 Z M58.0168082,23.9557072 C57.7710543,23.3172568 57.4961466,22.6919953 57.1931734,22.0818968 L56.2975304,22.5266706 C56.586649,23.1088699 56.8490061,23.7055858 57.0835587,24.3149359 L58.0168082,23.9557072 Z M56.202218,20.3008259 C55.8418672,19.7191716 55.4548657,19.1560377 55.0427103,18.6134317 L54.2463889,19.2183055 C54.6393902,19.735695 55.0084519,20.2727241 55.3521354,20.8274753 L56.202218,20.3008259 Z M53.6896575,17.0031654 C53.2238331,16.5013589 52.7349765,16.0235011 52.2249371,15.5714409 L51.5616462,16.3198025 C52.0473606,16.7503029 52.5129918,17.2054578 52.956763,17.6835077 L53.6896575,17.0031654 Z M50.6663688,14.3186242 C50.1121407,13.915656 49.539267,13.5414992 48.9497969,13.1976829 L48.4459711,14.0614882 C49.0063909,14.3883605 49.5511523,14.7441566 50.0782991,15.1274344 L50.6663688,14.3186242 Z M47.0964475,12.2419434 C46.4721199,11.9601861 45.834241,11.7111321 45.1848577,11.4958839 L44.8702261,12.4450978 C45.4866632,12.6494254 46.0922636,12.8858766 46.6850998,13.1534219 L47.0964475,12.2419434 Z M43.1543212,10.9418056 C42.4866045,10.7976601 41.8106123,10.688332 41.1281804,10.6144919 L41.020607,11.6086891 C41.6682417,11.678764 42.3097063,11.7825079 42.943304,11.919288 L43.1543212,10.9418056 Z M39.0072604,10.5 C39.0036616,10.5 39.0036616,10.5 39.0000627,10.5 C38.3146677,10.5 37.6333526,10.5352871 36.9577043,10.60539 L37.0609069,11.6000504 C37.7022869,11.533503 38.3491553,11.5 39.0000611,11.5 C39.0034782,11.5 39.0034782,11.5 39.0068967,11.5 L39.0072604,10.5 Z M34.9259537,10.9246522 C34.2552506,11.0664994 33.5933516,11.2433194 32.9422179,11.4542419 L33.2503842,12.4055744 C33.8683266,12.2054036 34.4964307,12.0376116 35.1328672,11.9030114 L34.9259537,10.9246522 Z M30.9789116,12.2081222 C30.3548002,12.486667 29.7446528,12.7975781 29.1505468,13.1395415 L29.6494044,14.0062255 C30.2139614,13.6812702 30.7936401,13.3858851 31.3864693,13.1213017 L30.9789116,12.2081222 Z M27.4384314,14.2429289 C26.8841451,14.6406312 26.3487184,15.0666505 25.8341306,15.5192864 L26.4945928,16.2701456 C26.9844291,15.8392814 27.4939969,15.4338371 28.0213994,15.055424 L27.4384314,14.2429289 Z M24.3197254,16.9930643 C23.8557899,17.4921845 23.4150951,18.0145696 22.9993314,18.5582688 L23.7936936,19.1657131 C24.1900236,18.6474278 24.6100598,18.1495306 25.0521772,17.6738831 L24.3197254,16.9930643 Z M21.8674433,20.1891426 C21.5051062,20.7661423 21.1694255,21.3611517 20.8617084,21.9721565 L21.7548369,22.421958 C22.0484275,21.8390028 22.3686702,21.271358 22.7143102,20.7209475 L21.8674433,20.1891426 Z M20.014764,23.8741693 C19.7676266,24.5086706 19.5495389,25.1558137 19.3613967,25.8136994 L20.3228531,26.0886568 C20.5024756,25.4605623 20.7106695,24.8427777 20.9465766,24.237109 L20.014764,23.8741693 Z M18.8809583,27.8536842 C18.7564725,28.5218748 18.6621315,29.1977024 18.5984726,29.8795191 L19.5941423,29.9724814 C19.6549762,29.3209208 19.7451163,28.6751872 19.864043,28.0368357 L18.8809583,27.8536842 Z M18.5,31.9880615 C18.5,31.9934412 18.5,31.9934412 18.5,31.9988213 C18.5,32.6811922 18.5302184,33.3587405 18.5903125,34.0311697 L19.5863429,33.9421557 C19.5288938,33.2993228 19.5,32.6514753 19.5,31.9988469 C19.5,31.993726 19.5,31.993726 19.5,31.9885798 L18.5,31.9880615 Z M18.865796,36.064076 C18.9886827,36.7376818 19.1420821,37.4031235 19.3252964,38.0586201 L20.2883842,37.7894326 C20.1134296,37.1634875 19.9669315,36.5279831 19.8495597,35.8846069 L18.865796,36.064076 Z M19.9802706,40.0366995 C20.2256933,40.6749943 20.5002512,41.3001209 20.8028581,41.9101077 L21.6986828,41.4657001 C21.4099135,40.8836067 21.1478899,40.2870187 20.913653,39.6778162 L19.9802706,40.0366995 Z M21.7935808,43.69239 C22.153643,44.2740569 22.5403511,44.8372216 22.9522098,45.3798779 L23.7487678,44.7753158 C23.3560486,44.2578774 22.9872662,43.7208178 22.6438573,43.1660537 L21.7935808,43.69239 Z M24.3049836,46.9910596 C24.7706245,47.4930424 25.2593057,47.9710862 25.7691782,48.4233414 L26.4327509,47.6752296 C25.9471939,47.2445422 25.4817285,46.7892089 25.038131,46.3109898 L24.3049836,46.9910596 Z M27.3272949,49.676767 C27.8813174,50.0799085 28.4539912,50.4542528 29.0432679,50.7982702 L29.547437,49.9346652 C28.9871991,49.6076006 28.4426259,49.2516251 27.9156729,48.8681809 L27.3272949,49.676767 Z M30.8981757,51.7556291 C31.5224032,52.0375641 32.1601887,52.2868021 32.8094853,52.50224 L33.1244047,51.5531216 C32.5080489,51.3486135 31.902536,51.1119872 31.3097937,50.8442726 L30.8981757,51.7556291 Z M34.8378532,53.0565033 C35.5055371,53.2009278 36.1815069,53.3105347 36.8639261,53.3846524 L36.9719013,52.3904988 C36.3242796,52.3201604 35.6828368,52.2161521 35.0492705,52.0791074 L34.8378532,53.0565033 Z M38.9844427,53.4999942 C38.9916401,53.4999942 38.9916401,53.4999942 38.9988381,53.4999942 L38.9988963,52.4999942 C38.9920588,52.4999942 38.9920588,52.4999942 38.985222,52.4999942 L38.9844427,53.4999942 Z" id="椭圆形" fill="#85B0EE" fill-rule="nonzero"></path>
                <path d="M0,40.5963678 L10.0212696,19.5107984 L24.9509162,22.9875654 L40.6168194,19.5107984 L49.779123,40.5759162 L35.6470877,35.15625 L24.9509162,39.8601113 L14.4183573,35.1357984 L0,40.5963678 Z M14.479712,32.9474804 L24.9509162,37.6308901 L35.6061846,32.9474804 L46.0364856,36.9355366 L39.4715314,21.8422775 L24.9509162,25.0736257 L11.1256545,21.8422775 L3.96760471,36.9150851 L14.479712,32.9474804 Z" id="形状" fill="#437DFF" fill-rule="nonzero"></path>
                <path d="M20.247055,16.6680301 C20.247055,20.0629908 17.5065445,22.8035013 14.1115838,22.8035013 C11.8414594,22.8035013 9.85765707,21.5559555 8.79417539,19.7357657 C8.28288613,18.8358966 7.97611257,17.7928665 7.97611257,16.6680301 C7.97611257,13.2730694 10.716623,10.5325589 14.1115838,10.5325589 C17.5065445,10.5325589 20.247055,13.2730694 20.247055,16.6680301 Z M17.1793194,16.6680301 C17.1793194,14.9705497 15.8090641,13.6002945 14.1115838,13.6002945 C12.4141034,13.6002945 11.0438482,14.9705497 11.0438482,16.6680301 C11.0438482,17.2202225 11.1870092,17.7519634 11.4528796,18.2018979 C11.9846204,19.1222186 12.9662958,19.7357657 14.1115838,19.7357657 C15.8090641,19.7357657 17.1793194,18.3655105 17.1793194,16.6680301 Z" id="形状结合" fill="#63F7DE" fill-rule="nonzero"></path>
                <polyline id="路径" fill="#63F7DE" fill-rule="nonzero" points="19.0199607 20.3493128 14.1115838 27.7118783 9.20320681 20.3493128"></polyline>
                <path d="M45.6070026,10.859784 C45.6070026,16.8520942 40.7599804,21.6991165 34.7676702,21.6991165 C30.7591623,21.6991165 27.2414921,19.5107984 25.3599476,16.2589987 C24.439627,14.6637762 23.9283377,12.8231348 23.9283377,10.859784 C23.9283377,4.86747382 28.7753599,0.0204515707 34.7676702,0.0204515707 C40.7599804,0.0204515707 45.6070026,4.86747382 45.6070026,10.859784 Z M40.1873364,10.859784 C40.1873364,7.87385471 37.7535995,5.4401178 34.7676702,5.4401178 C31.7817408,5.4401178 29.3480039,7.87385471 29.3480039,10.859784 C29.3480039,11.8414594 29.6138743,12.7617801 30.0638089,13.5593914 C31.0045812,15.195517 32.7634162,16.2794503 34.7676702,16.2794503 C37.7535995,16.2794503 40.1873364,13.8457134 40.1873364,10.859784 Z" id="形状结合" fill="#437DFF" fill-rule="nonzero"></path>
                <polyline id="路径" fill="#437DFF" fill-rule="nonzero" points="43.4391361 17.3633835 34.7676702 30.3705825 26.0962042 17.3633835"></polyline>
            </g>
        </g>
    </g>
</svg>