<?xml version="1.0" encoding="UTF-8"?>
<svg width="59px" height="58px" viewBox="0 0 59 58" version="1.1" xmlns="http://www.w3.org/2000/svg" xmlns:xlink="http://www.w3.org/1999/xlink">
    <!-- Generator: Sketch 56.3 (81716) - https://sketch.com -->
    <title>btn04</title>
    <desc>Created with Sketch.</desc>
    <g id="页面-1" stroke="none" stroke-width="1" fill="none" fill-rule="evenodd">
        <g id="核心产品-审计" transform="translate(-1400.000000, -762.000000)">
            <g id="btn04" transform="translate(1400.000000, 762.000000)">
                <path d="M38.5,56 C49.545695,56 58.5,46.5979797 58.5,35 C58.5,23.4020203 49.545695,14 38.5,14 C27.454305,14 18.5,23.4020203 18.5,35 C18.5,46.5979797 27.454305,56 38.5,56 Z" id="椭圆形" fill="#ECF4FF"></path>
                <path d="M37.5,57.5 C38.1873927,57.5 38.8707354,57.4645005 39.5483637,57.3939794 L39.4448524,56.3993512 C38.8015936,56.4662953 38.152801,56.5 37.5,56.5 L37.5,57.5 Z M41.5818829,57.0736887 C42.2523095,56.9316132 42.9139278,56.7545903 43.5647782,56.5434904 L43.2562558,55.5922733 C42.6385815,55.7926127 42.0107432,55.9605974 41.3745688,56.0954143 L41.5818829,57.0736887 Z M45.5282721,55.7886699 C46.1520601,55.5099733 46.761884,55.1989388 47.3556682,54.8568797 L46.8565028,53.990373 C46.2922498,54.3154202 45.7128768,54.6109235 45.120353,54.8756518 L45.5282721,55.7886699 Z M49.0679335,53.7525024 C49.6218538,53.3547424 50.1569202,52.9286959 50.6711559,52.476062 L50.0104404,51.7254255 C49.5209379,52.1562892 49.0117114,52.5617606 48.4846555,52.9402298 L49.0679335,53.7525024 Z M52.185637,51.0011644 C52.6493866,50.5018722 53.089888,49.9793251 53.5054514,49.4354743 L52.7108663,48.8283215 C52.3147264,49.3467526 51.8948735,49.8448053 51.4529322,50.3206179 L52.185637,51.0011644 Z M54.6357371,47.8057913 C54.9978737,47.228757 55.3333556,46.633725 55.6408767,46.0227088 L54.7476297,45.5731425 C54.4542258,46.1561092 54.1341724,46.7237762 53.7887233,47.2742203 L54.6357371,47.8057913 Z M56.488186,44.1182528 C56.7350906,43.4836544 56.9529415,42.8364244 57.1408436,42.1784614 L56.1792859,41.9038584 C55.9998925,42.5320275 55.7919243,43.1498959 55.5562391,43.7556581 L56.488186,44.1182528 Z M57.6205713,40.1380968 C57.7448061,39.4698645 57.8388952,38.7940047 57.9023023,38.1121647 L56.9065984,38.0195701 C56.8460049,38.6711546 56.7561052,39.3169206 56.6374181,39.9553134 L57.6205713,40.1380968 Z M58,36.0032561 C58,35.3157936 57.9695138,34.6354166 57.9089282,33.9603523 L56.9129313,34.0497409 C56.9708502,34.6950916 57,35.3456426 57,36 L58,36.0032561 Z M57.6330771,31.9297522 C57.5100325,31.2563521 57.3564917,30.5911191 57.1731525,29.9358333 L56.2101348,30.2052714 C56.3852084,30.8310145 56.5318414,31.4663188 56.6493639,32.1094976 L57.6330771,31.9297522 Z M56.5168082,27.9557072 C56.2710542,27.3172568 55.9961466,26.6919953 55.6931733,26.0818968 L54.7975304,26.5266706 C55.0866489,27.1088699 55.349006,27.7055858 55.5835586,28.3149359 L56.5168082,27.9557072 Z M54.7022179,24.3008259 C54.3418672,23.7191716 53.9548657,23.1560377 53.5427102,22.6134317 L52.7463889,23.2183055 C53.1393902,23.735695 53.5084518,24.2727241 53.8521353,24.8274753 L54.7022179,24.3008259 Z M52.1896575,21.0031654 C51.7238331,20.5013589 51.2349765,20.0235011 50.7249371,19.5714409 L50.0616462,20.3198025 C50.5473606,20.7503029 51.0129917,21.2054578 51.456763,21.6835077 L52.1896575,21.0031654 Z M49.1663687,18.3186242 C48.6121406,17.915656 48.039267,17.5414992 47.4497969,17.1976829 L46.945971,18.0614882 C47.5063909,18.3883605 48.0511523,18.7441566 48.5782991,19.1274344 L49.1663687,18.3186242 Z M45.5964475,16.2419434 C44.9721199,15.9601861 44.334241,15.7111321 43.6848577,15.4958839 L43.370226,16.4450978 C43.9866631,16.6494254 44.5922636,16.8858766 45.1850998,17.1534219 L45.5964475,16.2419434 Z M41.6543212,14.9418056 C40.9866045,14.7976601 40.3106123,14.688332 39.6281804,14.6144919 L39.520607,15.6086891 C40.1682417,15.678764 40.8097063,15.7825079 41.4433039,15.919288 L41.6543212,14.9418056 Z M37.5072604,14.5 C37.5036616,14.5 37.5036616,14.5 37.5000627,14.5 C36.8146677,14.5 36.1333526,14.5352871 35.4577043,14.60539 L35.5609068,15.6000504 C36.2022869,15.533503 36.8491553,15.5 37.5000611,15.5 C37.5034782,15.5 37.5034782,15.5 37.5068967,15.5 L37.5072604,14.5 Z M33.4259537,14.9246522 C32.7552506,15.0664994 32.0933516,15.2433194 31.4422179,15.4542419 L31.7503842,16.4055744 C32.3683266,16.2054036 32.9964306,16.0376116 33.6328672,15.9030114 L33.4259537,14.9246522 Z M29.4789116,16.2081222 C28.8548002,16.486667 28.2446527,16.7975781 27.6505468,17.1395415 L28.1494043,18.0062255 C28.7139614,17.6812702 29.2936401,17.3858851 29.8864693,17.1213017 L29.4789116,16.2081222 Z M25.9384314,18.2429289 C25.3841451,18.6406312 24.8487183,19.0666505 24.3341305,19.5192864 L24.9945928,20.2701456 C25.4844291,19.8392814 25.9939969,19.4338371 26.5213994,19.055424 L25.9384314,18.2429289 Z M22.8197253,20.9930643 C22.3557899,21.4921845 21.9150951,22.0145696 21.4993314,22.5582688 L22.2936936,23.1657131 C22.6900235,22.6474278 23.1100598,22.1495306 23.5521772,21.6738831 L22.8197253,20.9930643 Z M20.3674432,24.1891426 C20.0051061,24.7661423 19.6694254,25.3611517 19.3617084,25.9721565 L20.2548369,26.421958 C20.5484275,25.8390028 20.8686702,25.271358 21.2143101,24.7209475 L20.3674432,24.1891426 Z M18.5147639,27.8741693 C18.2676266,28.5086706 18.0495389,29.1558137 17.8613967,29.8136994 L18.8228531,30.0886568 C19.0024756,29.4605623 19.2106695,28.8427777 19.4465766,28.237109 L18.5147639,27.8741693 Z M17.3809583,31.8536842 C17.2564724,32.5218748 17.1621315,33.1977024 17.0984726,33.8795191 L18.0941422,33.9724814 C18.1549762,33.3209208 18.2451162,32.6751872 18.364043,32.0368357 L17.3809583,31.8536842 Z M17,35.9880615 C17,35.9934412 17,35.9934412 17,35.9988213 C17,36.6811922 17.0302184,37.3587405 17.0903125,38.0311697 L18.0863429,37.9421557 C18.0288937,37.2993228 18,36.6514753 18,35.9988469 C18,35.993726 18,35.993726 18,35.9885798 L17,35.9880615 Z M17.365796,40.064076 C17.4886827,40.7376818 17.642082,41.4031235 17.8252964,42.0586201 L18.7883842,41.7894326 C18.6134296,41.1634875 18.4669315,40.5279831 18.3495596,39.8846069 L17.365796,40.064076 Z M18.4802705,44.0366995 C18.7256933,44.6749943 19.0002512,45.3001209 19.3028581,45.9101077 L20.1986828,45.4657001 C19.9099134,44.8836067 19.6478898,44.2870187 19.413653,43.6778162 L18.4802705,44.0366995 Z M20.2935808,47.69239 C20.653643,48.2740569 21.040351,48.8372216 21.4522098,49.3798779 L22.2487678,48.7753158 C21.8560486,48.2578774 21.4872662,47.7208178 21.1438573,47.1660537 L20.2935808,47.69239 Z M22.8049836,50.9910596 C23.2706244,51.4930424 23.7593056,51.9710862 24.2691782,52.4233414 L24.9327509,51.6752296 C24.4471938,51.2445422 23.9817285,50.7892089 23.5381309,50.3109898 L22.8049836,50.9910596 Z M25.8272949,53.676767 C26.3813174,54.0799085 26.9539911,54.4542528 27.5432679,54.7982702 L28.047437,53.9346652 C27.487199,53.6076006 26.9426259,53.2516251 26.4156728,52.8681809 L25.8272949,53.676767 Z M29.3981757,55.7556291 C30.0224031,56.0375641 30.6601887,56.2868021 31.3094853,56.50224 L31.6244047,55.5531216 C31.0080488,55.3486135 30.402536,55.1119872 29.8097937,54.8442726 L29.3981757,55.7556291 Z M33.3378531,57.0565033 C34.005537,57.2009278 34.6815068,57.3105347 35.363926,57.3846524 L35.4719013,56.3904988 C34.8242795,56.3201604 34.1828368,56.2161521 33.5492704,56.0791074 L33.3378531,57.0565033 Z M37.4844427,57.4999942 C37.49164,57.4999942 37.49164,57.4999942 37.4988381,57.4999942 L37.4988963,56.4999942 C37.4920588,56.4999942 37.4920588,56.4999942 37.485222,56.4999942 L37.4844427,57.4999942 Z" id="椭圆形" fill="#85B0EE" fill-rule="nonzero"></path>
                <path d="M29.8092018,13.970172 C31.6695303,12.5151119 32.8511563,10.2397494 32.8120943,7.68607002 C32.7437358,3.39901362 29.1842095,-0.0530921387 24.8971531,0.000618164062 C20.6296278,0.054328418 17.1872875,3.53084795 17.1872875,7.81302158 C17.1872875,10.3129907 18.3640308,12.5395256 20.1901801,13.970172 C17.9099348,15.5180044 16.4060472,18.1302768 16.4060472,21.0941074 C16.4060472,21.9583545 17.1042807,22.656588 17.9685278,22.656588 L32.030854,22.656588 C32.8951011,22.656588 33.5933347,21.9583545 33.5933347,21.0941074 C33.5933347,18.1302768 32.0943298,15.5180044 29.8092018,13.970172 L29.8092018,13.970172 Z M20.3122489,7.81302158 C20.3122489,5.2300457 22.416715,3.12557954 24.9996909,3.12557954 C27.5826668,3.12557954 29.687133,5.2300457 29.687133,7.81302158 C29.687133,10.3959975 27.5826668,12.5004636 24.9996909,12.5004636 C22.416715,12.5004636 20.3122489,10.3959975 20.3122489,7.81302158 Z M20.3073661,19.5316267 C20.0290492,19.5316267 19.8386219,19.2484271 19.9460425,18.9896412 C20.2194766,18.3402352 20.6149795,17.7396566 21.1276685,17.2269677 C22.1676947,16.1918242 23.539748,15.625425 24.9996909,15.625425 C26.4596338,15.625425 27.8316872,16.1918243 28.8668306,17.2269677 C29.3795196,17.7396566 29.7799053,18.3402352 30.0484566,18.9896412 C30.1558772,19.2484271 29.9703326,19.5316267 29.687133,19.5316267 L20.3073661,19.5316267 L20.3073661,19.5316267 Z M46.2152489,41.3135839 C48.0755775,39.8585238 49.2572035,37.5831613 49.2181415,35.029482 C49.149783,30.7424256 45.5902567,27.2903199 41.3080831,27.3440301 C37.035675,27.3977403 33.5933347,30.8742599 33.5933347,35.1564335 C33.5933347,37.6564026 34.7700779,39.8829375 36.5962272,41.3135839 C34.315982,42.8614164 32.8120943,45.4736888 32.8120943,48.4375193 C32.8120943,49.3017665 33.5103279,50 34.374575,50 L48.4369012,50 C49.3011483,50 49.9993818,49.3017665 49.9993818,48.4375193 C49.9993818,45.4736888 48.500377,42.8614164 46.2152489,41.3135839 L46.2152489,41.3135839 Z M36.718296,35.1564335 C36.718296,32.5734576 38.8227622,30.4689915 41.4057381,30.4689915 C43.988714,30.4689915 46.0931801,32.5734576 46.0931801,35.1564335 C46.0931801,37.7394094 43.988714,39.8438756 41.4057381,39.8438756 C38.8227622,39.8438756 36.718296,37.7394094 36.718296,35.1564335 Z M36.7134133,46.8750386 C36.4350964,46.8750386 36.2446691,46.591839 36.3520896,46.3330531 C36.6255238,45.6836471 37.0210267,45.0830686 37.5337156,44.5703796 C38.5737418,43.5352362 39.9457952,42.9688369 41.4057381,42.9688369 C42.865681,42.9688369 44.2377343,43.5352362 45.2728778,44.5703796 C45.7855667,45.0830686 46.1859524,45.6836471 46.4545038,46.3330531 C46.5619244,46.591839 46.3763798,46.8750386 46.0931801,46.8750386 L36.7134133,46.8750386 L36.7134133,46.8750386 Z M13.4031546,41.3135839 C15.2634832,39.8585238 16.4451092,37.5831613 16.4060472,35.029482 C16.3376886,30.7424256 12.7781624,27.2903199 8.49598872,27.3440301 C4.22358062,27.3977403 0.781240332,30.8742599 0.781240332,35.1564335 C0.781240332,37.6564026 1.95798359,39.8829375 3.78413291,41.3135839 C1.50388765,42.8614164 0,45.4736888 0,48.4375193 C0,49.3017665 0.698233545,50 1.56248066,50 L15.6248068,50 C16.489054,50 17.1872875,49.3017665 17.1872875,48.4375193 C17.1872875,45.4736888 15.6882826,42.8614164 13.4031546,41.3135839 Z M3.90620171,35.1564335 C3.90620171,32.5734576 6.01066787,30.4689915 8.59364375,30.4689915 C11.1766196,30.4689915 13.2810858,32.5734576 13.2810858,35.1564335 C13.2810858,37.7394094 11.1766196,39.8438756 8.59364375,39.8438756 C6.01066787,39.8438756 3.90620171,37.7394094 3.90620171,35.1564335 Z M3.90131895,46.8750386 C3.62300205,46.8750386 3.43257476,46.591839 3.53999531,46.3330531 C3.81342944,45.6836471 4.20893237,45.0830686 4.72162129,44.5703796 C5.76164751,43.5352362 7.13370088,42.9688369 8.59364375,42.9688369 C10.0535866,42.9688369 11.42564,43.5352362 12.4607834,44.5703796 C12.9734724,45.0830686 13.3738581,45.6836471 13.6424095,46.3330531 C13.74983,46.591839 13.5642854,46.8750386 13.2810858,46.8750386 L3.90131895,46.8750386 L3.90131895,46.8750386 Z" id="形状" fill="#437DFF" fill-rule="nonzero"></path>
                <path d="M31.0201243,35.1564335 C30.7320419,35.659357 30.2047047,35.9376739 29.667602,35.9376739 C29.4039333,35.9376739 29.135382,35.8693153 28.8863616,35.7277155 L24.9996909,33.4865323 L21.1130202,35.7277155 C20.3659591,36.1573977 19.4089397,35.9034946 18.9792575,35.1564335 C18.8376577,34.9122959 18.7692992,34.6437445 18.7692992,34.3751932 C18.7692992,33.8332077 19.0476161,33.3107532 19.5505396,33.0226708 L23.4372103,30.7814876 L23.4372103,26.5627897 C23.4372103,25.6985426 24.1354438,25.0003091 24.9996909,25.0003091 C25.4293731,25.0003091 25.8199933,25.1760881 26.1031929,25.4592878 C26.3863925,25.7424874 26.5621716,26.1331076 26.5621716,26.5627897 L26.5621716,30.7766048 L30.4488423,33.0177881 C31.1959034,33.452353 31.4498065,34.4093725 31.0201243,35.1564335 L31.0201243,35.1564335 Z" id="路径" fill="#63F7DE" fill-rule="nonzero"></path>
            </g>
        </g>
    </g>
</svg>