<?xml version="1.0" encoding="UTF-8"?>
<svg width="57px" height="59px" viewBox="0 0 57 59" version="1.1" xmlns="http://www.w3.org/2000/svg" xmlns:xlink="http://www.w3.org/1999/xlink">
    <!-- Generator: Sketch 56.3 (81716) - https://sketch.com -->
    <title>btn02</title>
    <desc>Created with Sketch.</desc>
    <defs>
        <polygon id="path-1" points="0 0.351941748 49.6441176 0.351941748 49.6441176 49.5145631 0 49.5145631"></polygon>
        <polygon id="path-3" points="0 49.5145631 49.6441176 49.5145631 49.6441176 0.351941748 0 0.351941748"></polygon>
    </defs>
    <g id="页面-1" stroke="none" stroke-width="1" fill="none" fill-rule="evenodd">
        <g id="核心产品-审计" transform="translate(-777.000000, -762.000000)">
            <g id="btn02" transform="translate(777.000000, 762.000000)">
                <path d="M36.5,58.5 C47.545695,58.5 56.5,49.0979797 56.5,37.5 C56.5,25.9020203 47.545695,16.5 36.5,16.5 C25.454305,16.5 16.5,25.9020203 16.5,37.5 C16.5,49.0979797 25.454305,58.5 36.5,58.5 Z" id="椭圆形" fill="#ECF4FF"></path>
                <path d="M36.5,59 C37.1873927,59 37.8707354,58.9645005 38.5483637,58.8939794 L38.4448524,57.8993512 C37.8015936,57.9662953 37.152801,58 36.5,58 L36.5,59 Z M40.5818829,58.5736887 C41.2523095,58.4316132 41.9139278,58.2545903 42.5647782,58.0434904 L42.2562558,57.0922733 C41.6385815,57.2926127 41.0107432,57.4605974 40.3745688,57.5954143 L40.5818829,58.5736887 Z M44.5282721,57.2886699 C45.1520601,57.0099733 45.761884,56.6989388 46.3556682,56.3568797 L45.8565028,55.490373 C45.2922498,55.8154202 44.7128768,56.1109235 44.120353,56.3756518 L44.5282721,57.2886699 Z M48.0679335,55.2525024 C48.6218538,54.8547424 49.1569202,54.4286959 49.6711559,53.976062 L49.0104404,53.2254255 C48.5209379,53.6562892 48.0117114,54.0617606 47.4846555,54.4402298 L48.0679335,55.2525024 Z M51.185637,52.5011644 C51.6493866,52.0018722 52.089888,51.4793251 52.5054514,50.9354743 L51.7108663,50.3283215 C51.3147264,50.8467526 50.8948735,51.3448053 50.4529322,51.8206179 L51.185637,52.5011644 Z M53.6357371,49.3057913 C53.9978737,48.728757 54.3333556,48.133725 54.6408767,47.5227088 L53.7476297,47.0731425 C53.4542258,47.6561092 53.1341724,48.2237762 52.7887233,48.7742203 L53.6357371,49.3057913 Z M55.488186,45.6182528 C55.7350906,44.9836544 55.9529415,44.3364244 56.1408436,43.6784614 L55.1792859,43.4038584 C54.9998925,44.0320275 54.7919243,44.6498959 54.5562391,45.2556581 L55.488186,45.6182528 Z M56.6205713,41.6380968 C56.7448061,40.9698645 56.8388952,40.2940047 56.9023023,39.6121647 L55.9065984,39.5195701 C55.8460049,40.1711546 55.7561052,40.8169206 55.6374181,41.4553134 L56.6205713,41.6380968 Z M57,37.5032561 C57,36.8157936 56.9695138,36.1354166 56.9089282,35.4603523 L55.9129313,35.5497409 C55.9708502,36.1950916 56,36.8456426 56,37.5 L57,37.5032561 Z M56.6330771,33.4297522 C56.5100325,32.7563521 56.3564917,32.0911191 56.1731525,31.4358333 L55.2101348,31.7052714 C55.3852084,32.3310145 55.5318414,32.9663188 55.6493639,33.6094976 L56.6330771,33.4297522 Z M55.5168082,29.4557072 C55.2710542,28.8172568 54.9961466,28.1919953 54.6931733,27.5818968 L53.7975304,28.0266706 C54.0866489,28.6088699 54.349006,29.2055858 54.5835586,29.8149359 L55.5168082,29.4557072 Z M53.7022179,25.8008259 C53.3418672,25.2191716 52.9548657,24.6560377 52.5427102,24.1134317 L51.7463889,24.7183055 C52.1393902,25.235695 52.5084518,25.7727241 52.8521353,26.3274753 L53.7022179,25.8008259 Z M51.1896575,22.5031654 C50.7238331,22.0013589 50.2349765,21.5235011 49.7249371,21.0714409 L49.0616462,21.8198025 C49.5473606,22.2503029 50.0129917,22.7054578 50.456763,23.1835077 L51.1896575,22.5031654 Z M48.1663687,19.8186242 C47.6121406,19.415656 47.039267,19.0414992 46.4497969,18.6976829 L45.945971,19.5614882 C46.5063909,19.8883605 47.0511523,20.2441566 47.5782991,20.6274344 L48.1663687,19.8186242 Z M44.5964475,17.7419434 C43.9721199,17.4601861 43.334241,17.2111321 42.6848577,16.9958839 L42.370226,17.9450978 C42.9866631,18.1494254 43.5922636,18.3858766 44.1850998,18.6534219 L44.5964475,17.7419434 Z M40.6543212,16.4418056 C39.9866045,16.2976601 39.3106123,16.188332 38.6281804,16.1144919 L38.520607,17.1086891 C39.1682417,17.178764 39.8097063,17.2825079 40.4433039,17.419288 L40.6543212,16.4418056 Z M36.5072604,16 C36.5036616,16 36.5036616,16 36.5000627,16 C35.8146677,16 35.1333526,16.0352871 34.4577043,16.10539 L34.5609068,17.1000504 C35.2022869,17.033503 35.8491553,17 36.5000611,17 C36.5034782,17 36.5034782,17 36.5068967,17 L36.5072604,16 Z M32.4259537,16.4246522 C31.7552506,16.5664994 31.0933516,16.7433194 30.4422179,16.9542419 L30.7503842,17.9055744 C31.3683266,17.7054036 31.9964306,17.5376116 32.6328672,17.4030114 L32.4259537,16.4246522 Z M28.4789116,17.7081222 C27.8548002,17.986667 27.2446527,18.2975781 26.6505468,18.6395415 L27.1494043,19.5062255 C27.7139614,19.1812702 28.2936401,18.8858851 28.8864693,18.6213017 L28.4789116,17.7081222 Z M24.9384314,19.7429289 C24.3841451,20.1406312 23.8487183,20.5666505 23.3341305,21.0192864 L23.9945928,21.7701456 C24.4844291,21.3392814 24.9939969,20.9338371 25.5213994,20.555424 L24.9384314,19.7429289 Z M21.8197253,22.4930643 C21.3557899,22.9921845 20.9150951,23.5145696 20.4993314,24.0582688 L21.2936936,24.6657131 C21.6900235,24.1474278 22.1100598,23.6495306 22.5521772,23.1738831 L21.8197253,22.4930643 Z M19.3674432,25.6891426 C19.0051061,26.2661423 18.6694254,26.8611517 18.3617084,27.4721565 L19.2548369,27.921958 C19.5484275,27.3390028 19.8686702,26.771358 20.2143101,26.2209475 L19.3674432,25.6891426 Z M17.5147639,29.3741693 C17.2676266,30.0086706 17.0495389,30.6558137 16.8613967,31.3136994 L17.8228531,31.5886568 C18.0024756,30.9605623 18.2106695,30.3427777 18.4465766,29.737109 L17.5147639,29.3741693 Z M16.3809583,33.3536842 C16.2564724,34.0218748 16.1621315,34.6977024 16.0984726,35.3795191 L17.0941422,35.4724814 C17.1549762,34.8209208 17.2451162,34.1751872 17.364043,33.5368357 L16.3809583,33.3536842 Z M16,37.4880615 C16,37.4934412 16,37.4934412 16,37.4988213 C16,38.1811922 16.0302184,38.8587405 16.0903125,39.5311697 L17.0863429,39.4421557 C17.0288937,38.7993228 17,38.1514753 17,37.4988469 C17,37.493726 17,37.493726 17,37.4885798 L16,37.4880615 Z M16.365796,41.564076 C16.4886827,42.2376818 16.642082,42.9031235 16.8252964,43.5586201 L17.7883842,43.2894326 C17.6134296,42.6634875 17.4669315,42.0279831 17.3495596,41.3846069 L16.365796,41.564076 Z M17.4802705,45.5366995 C17.7256933,46.1749943 18.0002512,46.8001209 18.3028581,47.4101077 L19.1986828,46.9657001 C18.9099134,46.3836067 18.6478898,45.7870187 18.413653,45.1778162 L17.4802705,45.5366995 Z M19.2935808,49.19239 C19.653643,49.7740569 20.040351,50.3372216 20.4522098,50.8798779 L21.2487678,50.2753158 C20.8560486,49.7578774 20.4872662,49.2208178 20.1438573,48.6660537 L19.2935808,49.19239 Z M21.8049836,52.4910596 C22.2706244,52.9930424 22.7593056,53.4710862 23.2691782,53.9233414 L23.9327509,53.1752296 C23.4471938,52.7445422 22.9817285,52.2892089 22.5381309,51.8109898 L21.8049836,52.4910596 Z M24.8272949,55.176767 C25.3813174,55.5799085 25.9539911,55.9542528 26.5432679,56.2982702 L27.047437,55.4346652 C26.487199,55.1076006 25.9426259,54.7516251 25.4156728,54.3681809 L24.8272949,55.176767 Z M28.3981757,57.2556291 C29.0224031,57.5375641 29.6601887,57.7868021 30.3094853,58.00224 L30.6244047,57.0531216 C30.0080488,56.8486135 29.402536,56.6119872 28.8097937,56.3442726 L28.3981757,57.2556291 Z M32.3378531,58.5565033 C33.005537,58.7009278 33.6815068,58.8105347 34.363926,58.8846524 L34.4719013,57.8904988 C33.8242795,57.8201604 33.1828368,57.7161521 32.5492704,57.5791074 L32.3378531,58.5565033 Z M36.4844427,58.9999942 C36.49164,58.9999942 36.49164,58.9999942 36.4988381,58.9999942 L36.4988963,57.9999942 C36.4920588,57.9999942 36.4920588,57.9999942 36.485222,57.9999942 L36.4844427,58.9999942 Z" id="椭圆形" fill="#85B0EE" fill-rule="nonzero"></path>
                <path d="M3.78333333,26.7699029 L8.14068627,26.7699029 L8.14068627,23.3635922 L3.78333333,23.3635922 L3.78333333,26.7699029 Z M40.8740196,26.7699029 L45.2303922,26.7699029 L45.2303922,23.3635922 L40.8740196,23.3635922 L40.8740196,26.7699029 Z M23.1019608,45.4466019 L26.5416667,45.4466019 L26.5416667,41.1320388 L23.1019608,41.1320388 L23.1019608,45.4466019 Z" id="Fill-1" fill="#63F7DE"></path>
                <g id="编组" transform="translate(0.000000, 0.133495)">
                    <g>
                        <mask id="mask-2" fill="white">
                            <use xlink:href="#path-1"></use>
                        </mask>
                        <g id="Clip-3"></g>
                        <path d="M24.8219608,49.5145631 C11.1214706,49.5145631 -9.80392157e-05,38.5014563 -9.80392157e-05,24.9334951 C-9.80392157e-05,17.9509709 3.03813725,11.2519417 8.25480392,6.59708738 L11.2930392,10.0024272 C6.99352941,13.8067961 4.58617647,19.2563107 4.58617647,24.9334951 C4.58617647,36.0033981 13.7008824,44.9728155 24.8219608,44.9728155 C35.9435294,44.9728155 45.0577451,36.0033981 45.0577451,24.9334951 C45.0577451,11.7631068 33.9935294,4.89320388 23.1018627,4.89320388 L23.1018627,0.351941748 C36.2876471,0.351941748 49.6445098,8.81067961 49.6445098,24.9334951 C49.6445098,38.5014563 38.5229412,49.5145631 24.8219608,49.5145631" id="Fill-2" fill="#437DFF" mask="url(#mask-2)"></path>
                    </g>
                    <mask id="mask-4" fill="white">
                        <use xlink:href="#path-3"></use>
                    </mask>
                    <g id="Clip-5"></g>
                    <polygon id="Fill-4" fill="#437DFF" mask="url(#mask-4)" points="23.1019608 25.3305825 27.6882353 25.3305825 27.6882353 0.749029126 23.1019608 0.749029126"></polygon>
                    <polygon id="Fill-6" fill="#437DFF" mask="url(#mask-4)" points="24.1316667 22.5382039 27.6978431 25.3940291 21.6047059 32.8537379 18.0390196 29.9969417"></polygon>
                </g>
            </g>
        </g>
    </g>
</svg>