<svg width="61" height="55" viewBox="0 0 61 55" fill="none" xmlns="http://www.w3.org/2000/svg">
<path fill-rule="evenodd" clip-rule="evenodd" d="M39.853 53.7333C50.8987 53.7333 59.853 44.3313 59.853 32.7333C59.853 21.1353 50.8987 11.7333 39.853 11.7333C28.8073 11.7333 19.853 21.1353 19.853 32.7333C19.853 44.3313 28.8073 53.7333 39.853 53.7333Z" fill="#ECF4FF"/>
<path d="M39.853 54.2333C40.5404 54.2333 41.2238 54.1978 41.9014 54.1273L41.7979 53.1326C41.1546 53.1996 40.5058 53.2333 39.853 53.2333V54.2333ZM43.9349 53.807C44.6053 53.6649 45.267 53.4879 45.9178 53.2768L45.6093 52.3256C44.9916 52.5259 44.3638 52.6939 43.7276 52.8287L43.9349 53.807ZM47.8813 52.5219C48.5051 52.2432 49.1149 51.9322 49.7087 51.5902L49.2095 50.7236C48.6453 51.0487 48.0659 51.3442 47.4734 51.6089L47.8813 52.5219ZM51.421 50.4858C51.9749 50.088 52.5099 49.662 53.0242 49.2093L52.3635 48.4587C51.874 48.8896 51.3647 49.295 50.8377 49.6735L51.421 50.4858ZM54.5387 47.7344C55.0024 47.2351 55.4429 46.7126 55.8585 46.1688L55.0639 45.5616C54.6678 46.08 54.2479 46.5781 53.806 47.0539L54.5387 47.7344ZM56.9888 44.5391C57.3509 43.962 57.6864 43.367 57.9939 42.756L57.1007 42.3064C56.8073 42.8894 56.4872 43.4571 56.1418 44.0075L56.9888 44.5391ZM58.8412 40.8515C59.0881 40.2169 59.306 39.5697 59.4939 38.9117L58.5323 38.6371C58.3529 39.2653 58.145 39.8832 57.9093 40.4889L58.8412 40.8515ZM59.9736 36.8714C60.0978 36.2031 60.1919 35.5273 60.2553 34.8454L59.2596 34.7528C59.199 35.4044 59.1091 36.0502 58.9904 36.6886L59.9736 36.8714ZM60.353 32.7365C60.353 32.0491 60.3225 31.3687 60.262 30.6936L59.266 30.783C59.3239 31.4284 59.353 32.0789 59.353 32.7333L60.353 32.7365ZM59.9861 28.663C59.8631 27.9896 59.7095 27.3244 59.5262 26.6691L58.5632 26.9385C58.7382 27.5643 58.8849 28.1996 59.0024 28.8428L59.9861 28.663ZM58.8698 24.689C58.6241 24.0505 58.3492 23.4253 58.0462 22.8152L57.1506 23.2599C57.4397 23.8421 57.702 24.4389 57.9366 25.0482L58.8698 24.689ZM57.0552 21.0341C56.6949 20.4524 56.3079 19.8893 55.8957 19.3467L55.0994 19.9516C55.4924 20.469 55.8615 21.006 56.2052 21.5608L57.0552 21.0341ZM54.5427 17.7364C54.0769 17.2346 53.588 16.7568 53.078 16.3047L52.4147 17.0531C52.9004 17.4836 53.366 17.9387 53.8098 18.4168L54.5427 17.7364ZM51.5194 15.0519C50.9652 14.6489 50.3923 14.2748 49.8028 13.931L49.299 14.7948C49.8594 15.1216 50.4042 15.4774 50.9313 15.8607L51.5194 15.0519ZM47.9495 12.9752C47.3251 12.6935 46.6873 12.4444 46.0379 12.2292L45.7233 13.1784C46.3397 13.3827 46.9453 13.6192 47.5381 13.8867L47.9495 12.9752ZM44.0073 11.6751C43.3396 11.5309 42.6636 11.4216 41.9812 11.3478L41.8736 12.342C42.5213 12.412 43.1627 12.5158 43.7963 12.6526L44.0073 11.6751ZM39.8603 11.2333C39.8567 11.2333 39.8567 11.2333 39.8531 11.2333C39.1677 11.2333 38.4864 11.2686 37.8107 11.3387L37.9139 12.3333C38.5553 12.2668 39.2022 12.2333 39.8531 12.2333C39.8565 12.2333 39.8565 12.2333 39.8599 12.2333L39.8603 11.2333ZM35.779 11.6579C35.1083 11.7998 34.4464 11.9766 33.7952 12.1875L34.1034 13.1389C34.7214 12.9387 35.3495 12.7709 35.9859 12.6363L35.779 11.6579ZM31.8319 12.9414C31.2078 13.2199 30.5977 13.5309 30.0036 13.8728L30.5024 14.7395C31.067 14.4145 31.6467 14.1192 32.2395 13.8546L31.8319 12.9414ZM28.2915 14.9762C27.7372 15.3739 27.2017 15.7999 26.6872 16.2526L27.3476 17.0034C27.8375 16.5726 28.347 16.1671 28.8744 15.7887L28.2915 14.9762ZM25.1728 17.7263C24.7088 18.2255 24.2681 18.7478 23.8524 19.2915L24.6467 19.899C25.0431 19.3807 25.4631 18.8828 25.9052 18.4072L25.1728 17.7263ZM22.7205 20.9224C22.3581 21.4994 22.0225 22.0944 21.7147 22.7054L22.6079 23.1552C22.9015 22.5723 23.2217 22.0046 23.5673 21.4542L22.7205 20.9224ZM20.8678 24.6074C20.6207 25.2419 20.4026 25.8891 20.2144 26.547L21.1759 26.8219C21.3555 26.1938 21.5637 25.5761 21.7996 24.9704L20.8678 24.6074ZM19.734 28.587C19.6095 29.2551 19.5152 29.931 19.4515 30.6128L20.4472 30.7058C20.508 30.0542 20.5981 29.4085 20.7171 28.7701L19.734 28.587ZM19.353 32.7213C19.353 32.7267 19.353 32.7267 19.353 32.7321C19.353 33.4145 19.3832 34.092 19.4433 34.7644L20.4394 34.6754C20.3819 34.0326 20.353 33.3848 20.353 32.7321C20.353 32.727 20.353 32.727 20.353 32.7219L19.353 32.7213ZM19.7188 36.7974C19.8417 37.471 19.9951 38.1364 20.1783 38.7919L21.1414 38.5227C20.9665 37.8968 20.82 37.2613 20.7026 36.6179L19.7188 36.7974ZM20.8333 40.77C21.0787 41.4083 21.3533 42.0334 21.6559 42.6434L22.5517 42.199C22.2629 41.6169 22.0009 41.0203 21.7667 40.4111L20.8333 40.77ZM22.6466 44.4257C23.0067 45.0073 23.3934 45.5705 23.8052 46.1132L24.6018 45.5086C24.2091 44.9912 23.8403 44.4541 23.4969 43.8993L22.6466 44.4257ZM25.158 47.7243C25.6237 48.2263 26.1123 48.7044 26.6222 49.1566L27.2858 48.4085C26.8002 47.9778 26.3348 47.5225 25.8912 47.0443L25.158 47.7243ZM28.1803 50.41C28.7343 50.8132 29.307 51.1875 29.8963 51.5315L30.4005 50.6679C29.8402 50.3409 29.2957 49.9849 28.7687 49.6015L28.1803 50.41ZM31.7512 52.4889C32.3754 52.7708 33.0132 53.0201 33.6625 53.2355L33.9774 52.2864C33.3611 52.0819 32.7556 51.8453 32.1628 51.5775L31.7512 52.4889ZM35.6909 53.7898C36.3586 53.9342 37.0345 54.0438 37.717 54.1179L37.8249 53.1238C37.1773 53.0534 36.5359 52.9494 35.9023 52.8124L35.6909 53.7898ZM39.8375 54.2333C39.8447 54.2333 39.8447 54.2333 39.8519 54.2333L39.8519 53.2333C39.8451 53.2333 39.8451 53.2333 39.8382 53.2333L39.8375 54.2333Z" fill="#85B0EE"/>
<g clip-path="url(#clip0_50_2624)">
<path d="M14.6863 7.73328C14.6863 10.4741 12.4613 12.7333 9.68628 12.7333C6.94461 12.7333 4.68628 10.4999 4.68628 7.73328C4.68628 4.97494 6.92795 2.73328 9.68628 2.73328C12.4446 2.73328 14.6863 4.97494 14.6863 7.73328Z" stroke="#437DFF" stroke-width="2" stroke-miterlimit="10"/>
<path d="M42.1863 12.7333C42.1863 15.4783 39.9563 17.7333 37.1863 17.7333C34.4404 17.7333 32.1863 15.5033 32.1863 12.7333C32.1863 9.99744 34.4121 7.73328 37.1863 7.73328C39.9446 7.73328 42.1863 9.97494 42.1863 12.7333Z" stroke="#437DFF" stroke-width="2" stroke-miterlimit="10"/>
<path d="M31.353 40.2333C31.353 44.3749 27.9947 47.7333 23.853 47.7333C19.7114 47.7333 16.353 44.3749 16.353 40.2333C16.353 36.1233 19.693 32.7333 23.853 32.7333C27.9455 32.7333 31.353 36.0533 31.353 40.2333Z" fill="#437DFF" stroke="#437DFF" stroke-width="2" stroke-miterlimit="10"/>
<path d="M48.8531 30.2333C48.8531 32.5333 46.9864 34.3999 44.6864 34.3999C42.3623 34.3999 40.5198 32.5074 40.5198 30.2333C40.5198 27.9441 42.3756 26.0666 44.6864 26.0666C46.9864 26.0666 48.8531 27.9333 48.8531 30.2333Z" stroke="#437DFF" stroke-width="2" stroke-miterlimit="10"/>
<path d="M8.01969 26.0666C8.01969 27.8358 6.57969 29.3999 4.68636 29.3999C2.84469 29.3999 1.35303 27.9083 1.35303 26.0666C1.35303 24.2249 2.84469 22.7333 4.68636 22.7333C6.51553 22.7333 8.01969 24.2116 8.01969 26.0666Z" stroke="#437DFF" stroke-width="2" stroke-miterlimit="10"/>
<path d="M39.1479 17.3325L42.9329 26.4525" stroke="#437DFF" stroke-width="2" stroke-miterlimit="10"/>
<path d="M14.6489 8.34076L32.2281 12.0899" stroke="#437DFF" stroke-width="2" stroke-miterlimit="10"/>
<path d="M5.12646 22.7624L8.41646 12.5691" stroke="#437DFF" stroke-width="2" stroke-miterlimit="10"/>
<path d="M17.828 35.7749L7.36304 28.0433" stroke="#437DFF" stroke-width="2" stroke-miterlimit="10"/>
<path d="M40.9797 32.1349L30.5322 36.8199" stroke="#437DFF" stroke-width="2" stroke-miterlimit="10"/>
<path d="M34.5589 16.9858L27.2839 33.5666" stroke="#437DFF" stroke-width="2" stroke-miterlimit="10"/>
<path d="M20.8613 33.3583L11.6863 12.3166" stroke="#437DFF" stroke-width="2" stroke-miterlimit="10"/>
<path d="M38.0197 3.56659H36.353V5.23326H38.0197V3.56659Z" fill="#63F7DE"/>
<path d="M33.8532 4.39996H32.1865V6.06663H33.8532V4.39996Z" fill="#63F7DE"/>
<path d="M42.1864 4.39996H40.5198V6.06663H42.1864V4.39996Z" fill="#63F7DE"/>
<path d="M45.5197 7.73328H43.853V9.39994H45.5197V7.73328Z" fill="#63F7DE"/>
<path d="M41.3532 36.0666H39.6865V37.7333H41.3532V36.0666Z" fill="#63F7DE"/>
<path d="M45.5197 36.9H43.853V38.5666H45.5197V36.9Z" fill="#63F7DE"/>
<path d="M49.6864 36.0666H48.0198V37.7333H49.6864V36.0666Z" fill="#63F7DE"/>
<path d="M1.40479 8.66412C1.59895 10.4091 2.38562 11.9916 3.48729 13.2416" stroke="#63F7DE" stroke-width="2" stroke-miterlimit="10"/>
<path d="M1.68905 5.38409C1.55489 5.84243 1.45822 6.31659 1.40405 6.80409" stroke="#63F7DE" stroke-width="2" stroke-miterlimit="10"/>
<path d="M3.50811 2.14075C3.15311 2.53325 2.83394 2.95991 2.55811 3.41491" stroke="#63F7DE" stroke-width="2" stroke-miterlimit="10"/>
<path d="M15.6265 47.2825C15.9823 47.6966 16.3765 48.0933 16.809 48.4641" stroke="#63F7DE" stroke-width="2" stroke-miterlimit="10"/>
<path d="M13.1289 38.6866C13.0573 39.1916 13.0198 39.7083 13.0198 40.2333C13.0198 41.9658 13.4264 43.6041 14.1498 45.0566" stroke="#63F7DE" stroke-width="2" stroke-miterlimit="10"/>
</g>
<defs>
<clipPath id="clip0_50_2624">
<rect width="50" height="50" fill="white" transform="translate(0.519775 0.233276)"/>
</clipPath>
</defs>
</svg>
