<?xml version="1.0" encoding="UTF-8"?>
<svg width="57px" height="56px" viewBox="0 0 57 56" version="1.1" xmlns="http://www.w3.org/2000/svg" xmlns:xlink="http://www.w3.org/1999/xlink">
    <!-- Generator: Sketch 56.3 (81716) - https://sketch.com -->
    <title>btn35</title>
    <desc>Created with Sketch.</desc>
    <g id="页面-1" stroke="none" stroke-width="1" fill="none" fill-rule="evenodd">
        <g id="核心产品-合规" transform="translate(-936.000000, -765.000000)">
            <g id="btn35" transform="translate(936.000000, 765.000000)">
                <path d="M36.5,55.5 C47.545695,55.5 56.5,46.0979797 56.5,34.5 C56.5,22.9020203 47.545695,13.5 36.5,13.5 C25.454305,13.5 16.5,22.9020203 16.5,34.5 C16.5,46.0979797 25.454305,55.5 36.5,55.5 Z" id="椭圆形" fill="#ECF4FF"></path>
                <path d="M36.5,56 C37.1873927,56 37.8707354,55.9645005 38.5483637,55.8939794 L38.4448524,54.8993512 C37.8015936,54.9662953 37.152801,55 36.5,55 L36.5,56 Z M40.5818829,55.5736887 C41.2523095,55.4316132 41.9139278,55.2545903 42.5647782,55.0434904 L42.2562558,54.0922733 C41.6385815,54.2926127 41.0107432,54.4605974 40.3745688,54.5954143 L40.5818829,55.5736887 Z M44.5282721,54.2886699 C45.1520601,54.0099733 45.761884,53.6989388 46.3556682,53.3568797 L45.8565028,52.490373 C45.2922498,52.8154202 44.7128768,53.1109235 44.120353,53.3756518 L44.5282721,54.2886699 Z M48.0679335,52.2525024 C48.6218538,51.8547424 49.1569202,51.4286959 49.6711559,50.976062 L49.0104404,50.2254255 C48.5209379,50.6562892 48.0117114,51.0617606 47.4846555,51.4402298 L48.0679335,52.2525024 Z M51.185637,49.5011644 C51.6493866,49.0018722 52.089888,48.4793251 52.5054514,47.9354743 L51.7108663,47.3283215 C51.3147264,47.8467526 50.8948735,48.3448053 50.4529322,48.8206179 L51.185637,49.5011644 Z M53.6357371,46.3057913 C53.9978737,45.728757 54.3333556,45.133725 54.6408767,44.5227088 L53.7476297,44.0731425 C53.4542258,44.6561092 53.1341724,45.2237762 52.7887233,45.7742203 L53.6357371,46.3057913 Z M55.488186,42.6182528 C55.7350906,41.9836544 55.9529415,41.3364244 56.1408436,40.6784614 L55.1792859,40.4038584 C54.9998925,41.0320275 54.7919243,41.6498959 54.5562391,42.2556581 L55.488186,42.6182528 Z M56.6205713,38.6380968 C56.7448061,37.9698645 56.8388952,37.2940047 56.9023023,36.6121647 L55.9065984,36.5195701 C55.8460049,37.1711546 55.7561052,37.8169206 55.6374181,38.4553134 L56.6205713,38.6380968 Z M57,34.5032561 C57,33.8157936 56.9695138,33.1354166 56.9089282,32.4603523 L55.9129313,32.5497409 C55.9708502,33.1950916 56,33.8456426 56,34.5 L57,34.5032561 Z M56.6330771,30.4297522 C56.5100325,29.7563521 56.3564917,29.0911191 56.1731525,28.4358333 L55.2101348,28.7052714 C55.3852084,29.3310145 55.5318414,29.9663188 55.6493639,30.6094976 L56.6330771,30.4297522 Z M55.5168082,26.4557072 C55.2710542,25.8172568 54.9961466,25.1919953 54.6931733,24.5818968 L53.7975304,25.0266706 C54.0866489,25.6088699 54.349006,26.2055858 54.5835586,26.8149359 L55.5168082,26.4557072 Z M53.7022179,22.8008259 C53.3418672,22.2191716 52.9548657,21.6560377 52.5427102,21.1134317 L51.7463889,21.7183055 C52.1393902,22.235695 52.5084518,22.7727241 52.8521353,23.3274753 L53.7022179,22.8008259 Z M51.1896575,19.5031654 C50.7238331,19.0013589 50.2349765,18.5235011 49.7249371,18.0714409 L49.0616462,18.8198025 C49.5473606,19.2503029 50.0129917,19.7054578 50.456763,20.1835077 L51.1896575,19.5031654 Z M48.1663687,16.8186242 C47.6121406,16.415656 47.039267,16.0414992 46.4497969,15.6976829 L45.945971,16.5614882 C46.5063909,16.8883605 47.0511523,17.2441566 47.5782991,17.6274344 L48.1663687,16.8186242 Z M44.5964475,14.7419434 C43.9721199,14.4601861 43.334241,14.2111321 42.6848577,13.9958839 L42.370226,14.9450978 C42.9866631,15.1494254 43.5922636,15.3858766 44.1850998,15.6534219 L44.5964475,14.7419434 Z M40.6543212,13.4418056 C39.9866045,13.2976601 39.3106123,13.188332 38.6281804,13.1144919 L38.520607,14.1086891 C39.1682417,14.178764 39.8097063,14.2825079 40.4433039,14.419288 L40.6543212,13.4418056 Z M36.5072604,13 C36.5036616,13 36.5036616,13 36.5000627,13 C35.8146677,13 35.1333526,13.0352871 34.4577043,13.10539 L34.5609068,14.1000504 C35.2022869,14.033503 35.8491553,14 36.5000611,14 C36.5034782,14 36.5034782,14 36.5068967,14 L36.5072604,13 Z M32.4259537,13.4246522 C31.7552506,13.5664994 31.0933516,13.7433194 30.4422179,13.9542419 L30.7503842,14.9055744 C31.3683266,14.7054036 31.9964306,14.5376116 32.6328672,14.4030114 L32.4259537,13.4246522 Z M28.4789116,14.7081222 C27.8548002,14.986667 27.2446527,15.2975781 26.6505468,15.6395415 L27.1494043,16.5062255 C27.7139614,16.1812702 28.2936401,15.8858851 28.8864693,15.6213017 L28.4789116,14.7081222 Z M24.9384314,16.7429289 C24.3841451,17.1406312 23.8487183,17.5666505 23.3341305,18.0192864 L23.9945928,18.7701456 C24.4844291,18.3392814 24.9939969,17.9338371 25.5213994,17.555424 L24.9384314,16.7429289 Z M21.8197253,19.4930643 C21.3557899,19.9921845 20.9150951,20.5145696 20.4993314,21.0582688 L21.2936936,21.6657131 C21.6900235,21.1474278 22.1100598,20.6495306 22.5521772,20.1738831 L21.8197253,19.4930643 Z M19.3674432,22.6891426 C19.0051061,23.2661423 18.6694254,23.8611517 18.3617084,24.4721565 L19.2548369,24.921958 C19.5484275,24.3390028 19.8686702,23.771358 20.2143101,23.2209475 L19.3674432,22.6891426 Z M17.5147639,26.3741693 C17.2676266,27.0086706 17.0495389,27.6558137 16.8613967,28.3136994 L17.8228531,28.5886568 C18.0024756,27.9605623 18.2106695,27.3427777 18.4465766,26.737109 L17.5147639,26.3741693 Z M16.3809583,30.3536842 C16.2564724,31.0218748 16.1621315,31.6977024 16.0984726,32.3795191 L17.0941422,32.4724814 C17.1549762,31.8209208 17.2451162,31.1751872 17.364043,30.5368357 L16.3809583,30.3536842 Z M16,34.4880615 C16,34.4934412 16,34.4934412 16,34.4988213 C16,35.1811922 16.0302184,35.8587405 16.0903125,36.5311697 L17.0863429,36.4421557 C17.0288937,35.7993228 17,35.1514753 17,34.4988469 C17,34.493726 17,34.493726 17,34.4885798 L16,34.4880615 Z M16.365796,38.564076 C16.4886827,39.2376818 16.642082,39.9031235 16.8252964,40.5586201 L17.7883842,40.2894326 C17.6134296,39.6634875 17.4669315,39.0279831 17.3495596,38.3846069 L16.365796,38.564076 Z M17.4802705,42.5366995 C17.7256933,43.1749943 18.0002512,43.8001209 18.3028581,44.4101077 L19.1986828,43.9657001 C18.9099134,43.3836067 18.6478898,42.7870187 18.413653,42.1778162 L17.4802705,42.5366995 Z M19.2935808,46.19239 C19.653643,46.7740569 20.040351,47.3372216 20.4522098,47.8798779 L21.2487678,47.2753158 C20.8560486,46.7578774 20.4872662,46.2208178 20.1438573,45.6660537 L19.2935808,46.19239 Z M21.8049836,49.4910596 C22.2706244,49.9930424 22.7593056,50.4710862 23.2691782,50.9233414 L23.9327509,50.1752296 C23.4471938,49.7445422 22.9817285,49.2892089 22.5381309,48.8109898 L21.8049836,49.4910596 Z M24.8272949,52.176767 C25.3813174,52.5799085 25.9539911,52.9542528 26.5432679,53.2982702 L27.047437,52.4346652 C26.487199,52.1076006 25.9426259,51.7516251 25.4156728,51.3681809 L24.8272949,52.176767 Z M28.3981757,54.2556291 C29.0224031,54.5375641 29.6601887,54.7868021 30.3094853,55.00224 L30.6244047,54.0531216 C30.0080488,53.8486135 29.402536,53.6119872 28.8097937,53.3442726 L28.3981757,54.2556291 Z M32.3378531,55.5565033 C33.005537,55.7009278 33.6815068,55.8105347 34.363926,55.8846524 L34.4719013,54.8904988 C33.8242795,54.8201604 33.1828368,54.7161521 32.5492704,54.5791074 L32.3378531,55.5565033 Z M36.4844427,55.9999942 C36.49164,55.9999942 36.49164,55.9999942 36.4988381,55.9999942 L36.4988963,54.9999942 C36.4920588,54.9999942 36.4920588,54.9999942 36.485222,54.9999942 L36.4844427,55.9999942 Z" id="椭圆形" fill="#85B0EE" fill-rule="nonzero"></path>
                <g id="编组" fill-rule="nonzero">
                    <path d="M44.0000029,0 L44.0000029,21.5226429 C44.0031087,30.2832278 39.0653657,38.3094891 31.209535,42.3134286 L22.0000029,47 L12.7904635,42.3134286 C4.93354941,38.3089376 -0.00437948441,30.281078 2.91461123e-06,21.5192857 L2.91461123e-06,0 L44.0000029,0 Z M39.4036902,4.54221429 L4.59630826,4.54221429 L4.59630826,21.5192857 C4.59176582,28.5769132 8.56784232,35.0440784 14.8956937,38.2714286 L21.9999993,41.8904286 L29.1043048,38.2747857 C35.4321562,35.0474355 39.4082327,28.5802703 39.4036902,21.5226429 L39.4036902,4.54221429 Z" id="形状" fill="#437DFF"></path>
                    <polygon id="路径" fill="#63F7DE" points="27.496613 12.0051429 24.5316908 18.8436429 30.0283045 18.8436429 21.2283072 32.6448571 18.2667696 32.6448571 21.6006148 23.9095714 15.4338474 23.9095714 20.5209228 12.0051429"></polygon>
                </g>
            </g>
        </g>
    </g>
</svg>