<?xml version="1.0" encoding="UTF-8"?>
<svg width="60px" height="58px" viewBox="0 0 60 58" version="1.1" xmlns="http://www.w3.org/2000/svg" xmlns:xlink="http://www.w3.org/1999/xlink">
    <!-- Generator: Sketch 56.3 (81716) - https://sketch.com -->
    <title>btn34</title>
    <desc>Created with Sketch.</desc>
    <g id="页面-1" stroke="none" stroke-width="1" fill="none" fill-rule="evenodd">
        <g id="核心产品-合规" transform="translate(-540.000000, -763.000000)">
            <g id="btn34" transform="translate(540.000000, 763.000000)">
                <path d="M39,57 C50.045695,57 59,47.5979797 59,36 C59,24.4020203 50.045695,15 39,15 C27.954305,15 19,24.4020203 19,36 C19,47.5979797 27.954305,57 39,57 Z" id="椭圆形" fill="#ECF4FF"></path>
                <path d="M39,57.5 C39.6873927,57.5 40.3707354,57.4645005 41.0483637,57.3939794 L40.9448524,56.3993512 C40.3015937,56.4662953 39.652801,56.5 39,56.5 L39,57.5 Z M43.081883,57.0736887 C43.7523095,56.9316132 44.4139278,56.7545903 45.0647782,56.5434904 L44.7562559,55.5922733 C44.1385815,55.7926127 43.5107433,55.9605974 42.8745688,56.0954143 L43.081883,57.0736887 Z M47.0282721,55.7886699 C47.6520602,55.5099733 48.261884,55.1989388 48.8556682,54.8568797 L48.3565028,53.990373 C47.7922498,54.3154202 47.2128769,54.6109235 46.6203531,54.8756518 L47.0282721,55.7886699 Z M50.5679336,53.7525024 C51.1218538,53.3547424 51.6569202,52.9286959 52.171156,52.476062 L51.5104405,51.7254255 C51.0209379,52.1562892 50.5117115,52.5617606 49.9846555,52.9402298 L50.5679336,53.7525024 Z M53.6856371,51.0011644 C54.1493866,50.5018722 54.589888,49.9793251 55.0054514,49.4354743 L54.2108663,48.8283215 C53.8147264,49.3467526 53.3948736,49.8448053 52.9529322,50.3206179 L53.6856371,51.0011644 Z M56.1357371,47.8057913 C56.4978737,47.228757 56.8333557,46.633725 57.1408767,46.0227088 L56.2476297,45.5731425 C55.9542258,46.1561092 55.6341724,46.7237762 55.2887234,47.2742203 L56.1357371,47.8057913 Z M57.988186,44.1182528 C58.2350907,43.4836544 58.4529416,42.8364244 58.6408436,42.1784614 L57.6792859,41.9038584 C57.4998925,42.5320275 57.2919244,43.1498959 57.0562391,43.7556581 L57.988186,44.1182528 Z M59.1205713,40.1380968 C59.2448061,39.4698645 59.3388952,38.7940047 59.4023023,38.1121647 L58.4065984,38.0195701 C58.3460049,38.6711546 58.2561053,39.3169206 58.1374181,39.9553134 L59.1205713,40.1380968 Z M59.5,36.0032561 C59.5,35.3157936 59.4695138,34.6354166 59.4089282,33.9603523 L58.4129314,34.0497409 C58.4708502,34.6950916 58.5,35.3456426 58.5,36 L59.5,36.0032561 Z M59.1330771,31.9297522 C59.0100325,31.2563521 58.8564918,30.5911191 58.6731525,29.9358333 L57.7101348,30.2052714 C57.8852085,30.8310145 58.0318415,31.4663188 58.149364,32.1094976 L59.1330771,31.9297522 Z M58.0168082,27.9557072 C57.7710543,27.3172568 57.4961466,26.6919953 57.1931734,26.0818968 L56.2975304,26.5266706 C56.586649,27.1088699 56.8490061,27.7055858 57.0835587,28.3149359 L58.0168082,27.9557072 Z M56.202218,24.3008259 C55.8418672,23.7191716 55.4548657,23.1560377 55.0427103,22.6134317 L54.2463889,23.2183055 C54.6393902,23.735695 55.0084519,24.2727241 55.3521354,24.8274753 L56.202218,24.3008259 Z M53.6896575,21.0031654 C53.2238331,20.5013589 52.7349765,20.0235011 52.2249371,19.5714409 L51.5616462,20.3198025 C52.0473606,20.7503029 52.5129918,21.2054578 52.956763,21.6835077 L53.6896575,21.0031654 Z M50.6663688,18.3186242 C50.1121407,17.915656 49.539267,17.5414992 48.9497969,17.1976829 L48.4459711,18.0614882 C49.0063909,18.3883605 49.5511523,18.7441566 50.0782991,19.1274344 L50.6663688,18.3186242 Z M47.0964475,16.2419434 C46.4721199,15.9601861 45.834241,15.7111321 45.1848577,15.4958839 L44.8702261,16.4450978 C45.4866632,16.6494254 46.0922636,16.8858766 46.6850998,17.1534219 L47.0964475,16.2419434 Z M43.1543212,14.9418056 C42.4866045,14.7976601 41.8106123,14.688332 41.1281804,14.6144919 L41.020607,15.6086891 C41.6682417,15.678764 42.3097063,15.7825079 42.943304,15.919288 L43.1543212,14.9418056 Z M39.0072604,14.5 C39.0036616,14.5 39.0036616,14.5 39.0000627,14.5 C38.3146677,14.5 37.6333526,14.5352871 36.9577043,14.60539 L37.0609069,15.6000504 C37.7022869,15.533503 38.3491553,15.5 39.0000611,15.5 C39.0034782,15.5 39.0034782,15.5 39.0068967,15.5 L39.0072604,14.5 Z M34.9259537,14.9246522 C34.2552506,15.0664994 33.5933516,15.2433194 32.9422179,15.4542419 L33.2503842,16.4055744 C33.8683266,16.2054036 34.4964307,16.0376116 35.1328672,15.9030114 L34.9259537,14.9246522 Z M30.9789116,16.2081222 C30.3548002,16.486667 29.7446528,16.7975781 29.1505468,17.1395415 L29.6494044,18.0062255 C30.2139614,17.6812702 30.7936401,17.3858851 31.3864693,17.1213017 L30.9789116,16.2081222 Z M27.4384314,18.2429289 C26.8841451,18.6406312 26.3487184,19.0666505 25.8341306,19.5192864 L26.4945928,20.2701456 C26.9844291,19.8392814 27.4939969,19.4338371 28.0213994,19.055424 L27.4384314,18.2429289 Z M24.3197254,20.9930643 C23.8557899,21.4921845 23.4150951,22.0145696 22.9993314,22.5582688 L23.7936936,23.1657131 C24.1900236,22.6474278 24.6100598,22.1495306 25.0521772,21.6738831 L24.3197254,20.9930643 Z M21.8674433,24.1891426 C21.5051062,24.7661423 21.1694255,25.3611517 20.8617084,25.9721565 L21.7548369,26.421958 C22.0484275,25.8390028 22.3686702,25.271358 22.7143102,24.7209475 L21.8674433,24.1891426 Z M20.014764,27.8741693 C19.7676266,28.5086706 19.5495389,29.1558137 19.3613967,29.8136994 L20.3228531,30.0886568 C20.5024756,29.4605623 20.7106695,28.8427777 20.9465766,28.237109 L20.014764,27.8741693 Z M18.8809583,31.8536842 C18.7564725,32.5218748 18.6621315,33.1977024 18.5984726,33.8795191 L19.5941423,33.9724814 C19.6549762,33.3209208 19.7451163,32.6751872 19.864043,32.0368357 L18.8809583,31.8536842 Z M18.5,35.9880615 C18.5,35.9934412 18.5,35.9934412 18.5,35.9988213 C18.5,36.6811922 18.5302184,37.3587405 18.5903125,38.0311697 L19.5863429,37.9421557 C19.5288938,37.2993228 19.5,36.6514753 19.5,35.9988469 C19.5,35.993726 19.5,35.993726 19.5,35.9885798 L18.5,35.9880615 Z M18.865796,40.064076 C18.9886827,40.7376818 19.1420821,41.4031235 19.3252964,42.0586201 L20.2883842,41.7894326 C20.1134296,41.1634875 19.9669315,40.5279831 19.8495597,39.8846069 L18.865796,40.064076 Z M19.9802706,44.0366995 C20.2256933,44.6749943 20.5002512,45.3001209 20.8028581,45.9101077 L21.6986828,45.4657001 C21.4099135,44.8836067 21.1478899,44.2870187 20.913653,43.6778162 L19.9802706,44.0366995 Z M21.7935808,47.69239 C22.153643,48.2740569 22.5403511,48.8372216 22.9522098,49.3798779 L23.7487678,48.7753158 C23.3560486,48.2578774 22.9872662,47.7208178 22.6438573,47.1660537 L21.7935808,47.69239 Z M24.3049836,50.9910596 C24.7706245,51.4930424 25.2593057,51.9710862 25.7691782,52.4233414 L26.4327509,51.6752296 C25.9471939,51.2445422 25.4817285,50.7892089 25.038131,50.3109898 L24.3049836,50.9910596 Z M27.3272949,53.676767 C27.8813174,54.0799085 28.4539912,54.4542528 29.0432679,54.7982702 L29.547437,53.9346652 C28.9871991,53.6076006 28.4426259,53.2516251 27.9156729,52.8681809 L27.3272949,53.676767 Z M30.8981757,55.7556291 C31.5224032,56.0375641 32.1601887,56.2868021 32.8094853,56.50224 L33.1244047,55.5531216 C32.5080489,55.3486135 31.902536,55.1119872 31.3097937,54.8442726 L30.8981757,55.7556291 Z M34.8378532,57.0565033 C35.5055371,57.2009278 36.1815069,57.3105347 36.8639261,57.3846524 L36.9719013,56.3904988 C36.3242796,56.3201604 35.6828368,56.2161521 35.0492705,56.0791074 L34.8378532,57.0565033 Z M38.9844427,57.4999942 C38.9916401,57.4999942 38.9916401,57.4999942 38.9988381,57.4999942 L38.9988963,56.4999942 C38.9920588,56.4999942 38.9920588,56.4999942 38.985222,56.4999942 L38.9844427,57.4999942 Z" id="椭圆形" fill="#85B0EE" fill-rule="nonzero"></path>
                <path d="M10.7003531,34.0227445 C11.471975,35.3985675 13.1415846,35.9882407 15.3239533,35.9882407 C17.0068677,35.9882407 19.0017418,35.6226518 21.1180153,35.0110263 C22.2226885,40.1320067 24.2641604,44 27.158555,44 C30.0989342,44 32.1573284,40.0056438 33.2489419,34.7635302 C35.1862433,35.2422862 37.0137947,35.5190318 38.5918642,35.5190318 C41.0318694,35.5190318 42.8835781,34.8728663 43.6539737,33.3569982 C44.5989883,31.499622 43.5994666,29.0059314 40.7643616,26.1461655 C40.3147546,25.6919767 39.7828045,25.2382136 39.2601127,24.7847545 C42.6570885,21.5989869 44.5905272,18.3359909 43.2997695,16.0337906 C41.9387474,13.6100921 37.7927128,13.6287 32.9687423,15.0103607 C31.8219472,10.3864401 29.8644126,7 27.158555,7 C24.3726841,7 22.3773195,10.5849842 21.2463431,15.4197326 C16.1013999,14.0682944 11.6567719,14.119922 10.3460263,16.6995977 C9.40101167,18.5569739 10.4005334,21.0506645 13.2356384,23.9104304 C13.6852454,24.3646192 14.2171955,24.8183823 14.7398873,25.2718414 C11.3430341,28.4575481 9.40959546,31.7205442 10.7003531,34.0227445 L10.7003531,34.0227445 Z M39.465632,27.3547155 C41.4208823,29.3123216 42.3463589,31.0904218 41.8818315,31.9970072 C41.3077275,33.1186881 38.3516227,33.4004062 34,32.3216982 C34.1882395,31.1158018 34.33266,29.8694704 34.4194766,28.6022582 C35.6746802,27.7711784 36.8652993,26.8966641 37.9529703,26 C38.487303,26.4513603 39.0148897,26.9036436 39.465632,27.3547155 L39.465632,27.3547155 Z M34,23 C34.7050008,23.4787094 35.3646735,23.9626392 36,24.455123 C35.3940358,24.9662243 34.7378498,25.4787094 34.0330326,26 C34.0378039,25.7091641 34.0474079,25.4180766 34.0474079,25.1280584 C34.0474079,24.4203409 34.0282612,23.7099189 34,23 L34,23 Z M39.0967104,16 C40.5644445,16 41.531812,16.3190531 41.8574681,16.8854067 C42.4520053,17.9166074 41.181028,20.2679647 38.148426,23 C37.0416101,22.1745588 35.8358825,21.3670271 34.5276873,20.5903937 C34.4056033,19.3049118 34.230478,18.0471811 34,16.8476422 C36.031454,16.2759672 37.7752994,16 39.0967104,16 L39.0967104,16 Z M23,30 C23.424159,30.2616145 23.8297087,30.5364847 24.2670814,30.7870944 C24.508176,30.9250922 24.7560425,31.0515851 25,31.1851435 C24.3905192,31.4773964 23.787425,31.7645845 23.2151627,32 C23.131366,31.3627212 23.0615537,30.6906146 23,30 Z M26.9823318,42 C25.6530104,42 23.9808793,39.3142144 23,34.6251125 C24.313847,34.1643999 25.6496309,33.6169824 26.9788931,33 C28.3243411,33.5593564 29.6759553,34.0536398 31,34.4596224 C30.0243382,39.2526876 28.3274835,42 26.9823318,42 Z M31.7931843,32 C31.2189923,31.7940499 30.6138925,31.539445 30,31.2773873 C30.2319682,31.1366335 30.4684128,31.0035143 30.6974501,30.8584586 C31.1358995,30.5807572 31.5701461,30.2945626 32,30 C31.9414351,30.6912264 31.8744505,31.3630635 31.7931843,32 L31.7931843,32 Z M32,20 C31.5596053,19.7205453 31.1339879,19.430437 30.6775761,19.1644424 C30.4541803,19.0342517 30.2261728,18.9117933 30,18.7860702 C30.5745096,18.5048741 31.1558747,18.2427432 31.7433799,18 C31.8409699,18.6341142 31.9267579,19.3008763 32,20 Z M27.0443642,9 C28.3420029,9 29.952618,11.2970981 31,15.3547407 C29.5906729,15.817931 28.1501727,16.3739818 26.7226146,17 C25.5015243,16.5207599 24.2595554,16.0900553 23,15.7090277 C24.0432754,11.4304168 25.7095168,9 27.0443642,9 L27.0443642,9 Z M23.2530457,18 C23.8190326,18.2140594 24.4039339,18.4569317 25,18.7145874 C24.7071553,18.8940262 24.4116179,19.0688641 24.1225823,19.253809 C23.745805,19.4945693 23.3729682,19.7480766 23,20 C23.0721701,19.3313758 23.1565372,18.6645626 23.2530457,18 L23.2530457,18 Z M22.1170637,21.5633499 C22.8562054,21.1062378 23.5897961,20.6482116 24.4097352,20.1974974 C25.1713814,19.7794378 25.94343,19.3801487 26.7251656,19 C27.4966879,19.3381728 28.2833829,19.7008403 29.0919733,20.1039667 C30.0575943,20.5845986 30.986579,21.0913094 31.8855268,21.6107551 C31.9573193,22.6828543 32,23.8047959 32,24.9857197 C32,25.7612018 31.9781662,26.5058522 31.9464024,27.2348432 C31.0996336,27.7687297 30.2280706,28.302799 29.2713311,28.8285206 C28.4735959,29.2668657 27.7151492,29.6290457 26.9524467,30 C26.1756202,29.6598164 25.4034194,29.3281024 24.5890313,28.9220513 C23.7187635,28.4887636 22.8880309,28.0289095 22.071299,27.5637543 C22.0294201,26.7316664 22,25.8795928 22,24.9856588 C22,23.7877349 22.0432358,22.6492807 22.1170637,21.5633499 L22.1170637,21.5633499 Z M14.705776,22.6470012 C12.6182854,20.6917094 11.6302157,18.9157112 12.1261607,18.0101976 C12.4766226,17.3700524 13.6506326,17 15.4598078,17 C16.9213394,17 18.8101765,17.2543066 21,17.793167 C20.7955221,18.8705998 20.6386409,19.9925678 20.5235321,21.1347583 C19.025301,22.0424036 17.6064186,23.0086997 16.3209322,24 C15.7504608,23.5491732 15.1870036,23.0975975 14.705776,22.6470012 Z M19.9791777,27 C19.2797802,26.5294612 18.62282,26.0528968 18,25.5661986 C18.6083923,25.0488798 19.2761864,24.5282195 20,24 C19.9761125,24.6105501 19.9600994,25.2213742 19.9600994,25.8299523 C19.9600994,26.2190918 19.9694535,26.6095459 19.9791777,27 L19.9791777,27 Z M16.7837814,27 C17.998691,27.9238106 19.2655634,28.7794692 20.5783665,29.5629019 C20.6712866,30.775367 20.8132866,31.9666322 21,33.1174457 C16.710831,34.370821 13.7551463,34.2132538 13.1400458,33.1229462 C12.5559186,32.0903368 13.8045173,29.7357674 16.7837814,27 L16.7837814,27 Z M6.14490107,23.0402632 C6.14490107,21.8948278 5.44479498,20.9259526 4.45251376,20.4341831 C6.57208339,9.71891421 16.2605983,1.97482691 27.6455242,1.97482691 C36.7714782,1.97482691 45.1721322,7.11652987 49.0473525,15.0783667 C49.2887065,15.5696593 49.8939176,15.7840112 50.4103619,15.5527901 C50.9217921,15.3215691 51.1431519,14.7339493 50.903036,14.2402724 C46.6914429,5.58966023 37.5617129,0 27.6454623,0 C15.2209006,0 4.65375557,8.48668898 2.40840208,20.2099959 C1.04273095,20.5110184 0,21.6363061 0,23.0402036 C0,24.670613 1.37805143,26 3.07241958,26 C4.76678773,26 6.14490107,24.6706727 6.14490107,23.0402632 Z M51.9440886,23 C50.2594692,23 48.8893466,24.3660915 48.8893466,26.0439669 C48.8893466,27.1591611 49.5256024,28.0960443 50.4283497,28.6254645 C48.4893018,39.6874855 38.6484461,47.9706479 27.3060068,47.9706479 C18.3195853,47.9706479 10.0008077,42.7587106 6.11304927,34.6884066 L5.94767691,34.3369912 C5.71645102,33.8247222 5.11595301,33.6020019 4.59995677,33.8296838 C4.0877148,34.0598159 3.85895073,34.6587596 4.09023816,35.1685784 L4.27548967,35.5645256 C8.50137823,44.3326989 17.5412827,50 27.3060068,50 C39.6278173,50 50.3194144,41.0015109 52.4314047,28.9872932 C53.8758126,28.7457065 55,27.5475741 55,26.0439669 C55,24.3660915 53.628708,23 51.9440886,23 L51.9440886,23 Z" id="形状" fill="#437DFF" fill-rule="nonzero"></path>
                <path d="M27.5014103,28 C29.4301688,28 31,26.6525557 31,25.0024167 C31,23.3474443 29.4301688,22 27.5014103,22 C25.5698312,22 24,23.3474443 24,25.0024167 C24,26.6525557 25.5698312,28 27.5014103,28 Z" id="路径" fill="#63F7DE" fill-rule="nonzero"></path>
            </g>
        </g>
    </g>
</svg>